<svg id="svg" version="1.1" xmlns="http://www.w3.org/2000/svg" xmlns:xlink="http://www.w3.org/1999/xlink" width="400" height="299.0769230769231" viewBox="0, 0, 400,299.0769230769231"><g id="svgg"><path id="path0" d="M201.346 21.721 C 201.346 21.810,201.548 22.085,201.795 22.331 C 202.184 22.721,202.244 22.722,202.244 22.342 C 202.244 22.101,202.042 21.826,201.795 21.732 C 201.548 21.637,201.346 21.632,201.346 21.721 M193.195 24.183 C 192.707 24.376,192.710 24.413,193.239 24.744 C 193.716 25.042,193.830 25.005,193.958 24.516 C 194.120 23.897,194.023 23.855,193.195 24.183 M186.687 28.091 C 186.687 28.238,186.866 28.427,187.086 28.511 C 187.305 28.595,187.484 28.475,187.484 28.244 C 187.484 28.013,187.305 27.823,187.086 27.823 C 186.866 27.823,186.687 27.944,186.687 28.091 M212.117 28.073 C 212.117 28.494,212.454 28.688,212.894 28.519 C 213.518 28.279,213.401 27.823,212.715 27.823 C 212.386 27.823,212.117 27.936,212.117 28.073 M184.293 29.619 C 184.022 30.126,184.066 30.217,184.582 30.217 C 184.991 30.217,185.191 30.021,185.191 29.619 C 185.191 29.289,185.061 29.020,184.902 29.020 C 184.743 29.020,184.469 29.289,184.293 29.619 M218.399 31.713 C 218.399 32.088,218.717 32.088,219.297 31.713 C 219.660 31.478,219.617 31.422,219.073 31.418 C 218.702 31.416,218.399 31.548,218.399 31.713 M220.793 33.108 C 220.793 33.465,221.017 33.697,221.391 33.725 C 222.036 33.773,222.212 33.082,221.644 32.731 C 221.410 32.586,221.380 32.653,221.552 32.938 C 221.768 33.296,221.730 33.297,221.299 32.948 C 220.857 32.589,220.793 32.609,220.793 33.108 M223.186 34.023 C 223.186 34.400,224.041 35.146,224.242 34.945 C 224.322 34.866,224.117 34.556,223.786 34.257 C 223.456 33.959,223.186 33.853,223.186 34.023 M174.495 35.151 C 173.960 35.383,173.521 35.479,173.518 35.363 C 173.513 35.115,172.936 35.967,172.929 36.234 C 172.927 36.334,173.259 36.353,173.669 36.274 C 174.078 36.196,174.340 36.013,174.249 35.867 C 174.159 35.720,174.430 35.470,174.851 35.310 C 175.272 35.150,175.617 34.948,175.617 34.862 C 175.617 34.660,175.636 34.655,174.495 35.151 M167.140 39.092 C 166.729 39.504,166.963 40.090,167.539 40.090 C 167.938 40.090,168.138 39.890,168.138 39.491 C 168.138 38.915,167.552 38.681,167.140 39.092 M231.776 39.491 C 231.866 39.837,232.184 40.090,232.528 40.090 C 232.948 40.090,233.070 39.950,232.942 39.617 C 232.842 39.356,232.760 39.087,232.760 39.018 C 232.760 38.949,232.503 38.893,232.190 38.893 C 231.767 38.893,231.660 39.048,231.776 39.491 M164.747 40.289 C 164.354 40.682,164.557 41.286,165.082 41.286 C 165.402 41.286,165.635 41.046,165.662 40.688 C 165.705 40.113,165.161 39.875,164.747 40.289 M160.779 42.829 C 160.647 43.043,160.697 43.093,160.911 42.961 C 161.121 42.831,161.257 42.949,161.257 43.263 C 161.257 43.856,161.640 43.584,161.737 42.923 C 161.814 42.403,161.087 42.331,160.779 42.829 M238.145 43.082 C 238.145 43.411,238.339 43.680,238.576 43.680 C 239.201 43.680,239.489 43.059,239.006 42.753 C 238.366 42.348,238.145 42.432,238.145 43.082 M158.448 44.149 C 158.278 44.592,158.518 44.877,159.063 44.877 C 159.282 44.877,159.461 44.630,159.461 44.328 C 159.461 43.714,158.668 43.575,158.448 44.149 M240.539 44.268 C 240.539 44.603,240.733 44.877,240.970 44.877 C 241.685 44.877,241.792 44.330,241.145 43.984 C 240.628 43.707,240.539 43.749,240.539 44.268 M246.821 48.168 C 246.821 48.570,247.021 48.766,247.430 48.766 C 247.946 48.766,247.990 48.675,247.719 48.168 C 247.543 47.838,247.269 47.569,247.110 47.569 C 246.951 47.569,246.821 47.838,246.821 48.168 M149.589 49.495 C 149.589 49.741,149.845 49.906,150.187 49.880 C 150.904 49.826,150.969 49.499,150.312 49.247 C 149.646 48.991,149.589 49.011,149.589 49.495 M250.711 50.262 C 251.291 50.637,251.608 50.637,251.608 50.262 C 251.608 50.097,251.305 49.965,250.935 49.967 C 250.391 49.971,250.348 50.027,250.711 50.262 M255.298 53.044 C 255.298 53.258,255.555 53.452,255.869 53.476 C 256.334 53.511,256.374 53.439,256.082 53.087 C 255.636 52.550,255.298 52.532,255.298 53.044 M141.286 54.000 C 140.771 54.586,140.811 54.673,141.582 54.634 C 141.963 54.614,142.294 54.375,142.352 54.076 C 142.472 53.450,141.812 53.403,141.286 54.000 M132.685 58.888 C 132.603 58.970,132.536 59.227,132.536 59.458 C 132.536 60.032,133.509 59.805,133.595 59.212 C 133.660 58.773,133.026 58.547,132.685 58.888 M128.646 61.566 C 128.646 61.901,128.870 62.101,129.245 62.101 C 129.648 62.101,129.841 61.903,129.838 61.492 C 129.835 60.989,129.783 60.961,129.544 61.331 C 129.350 61.631,129.252 61.655,129.249 61.406 C 129.247 61.200,129.110 61.032,128.945 61.032 C 128.781 61.032,128.646 61.273,128.646 61.566 M270.192 61.556 C 270.167 62.041,270.324 62.229,270.755 62.229 C 271.404 62.229,271.571 61.501,271.004 61.150 C 270.768 61.005,270.716 61.097,270.845 61.432 C 270.950 61.706,270.915 61.930,270.768 61.930 C 270.621 61.930,270.439 61.694,270.363 61.406 C 270.260 61.012,270.218 61.049,270.192 61.556 M126.458 62.422 C 126.049 62.832,126.266 63.426,126.825 63.426 C 127.192 63.426,127.370 63.244,127.322 62.918 C 127.240 62.362,126.782 62.098,126.458 62.422 M278.748 66.423 C 278.833 66.749,279.089 67.016,279.317 67.016 C 279.917 67.016,279.824 66.488,279.162 66.134 C 278.678 65.875,278.616 65.918,278.748 66.423 M120.269 66.592 C 120.269 66.852,120.429 67.012,120.625 66.947 C 121.179 66.762,121.271 66.118,120.743 66.118 C 120.482 66.118,120.269 66.331,120.269 66.592 M285.076 69.977 C 285.302 70.119,285.602 70.420,285.745 70.645 C 285.936 70.947,286.006 70.877,286.009 70.381 C 286.012 69.880,285.842 69.709,285.340 69.713 C 284.844 69.716,284.775 69.786,285.076 69.977 M287.210 71.653 C 287.210 71.900,287.429 72.102,287.696 72.102 C 288.093 72.102,288.114 72.020,287.809 71.653 C 287.604 71.406,287.385 71.204,287.323 71.204 C 287.261 71.204,287.210 71.406,287.210 71.653 M109.633 72.675 C 109.726 72.825,109.633 73.016,109.426 73.100 C 109.199 73.191,109.258 73.261,109.574 73.275 C 109.862 73.288,110.097 73.096,110.097 72.850 C 110.097 72.603,109.955 72.401,109.780 72.401 C 109.606 72.401,109.540 72.524,109.633 72.675 M103.067 75.941 C 102.755 76.253,102.934 76.889,103.334 76.889 C 103.664 76.889,104.114 76.300,104.114 75.867 C 104.114 75.727,103.217 75.790,103.067 75.941 M101.197 77.386 C 100.676 77.596,100.728 78.085,101.272 78.085 C 101.518 78.085,101.720 77.883,101.720 77.636 C 101.720 77.390,101.687 77.198,101.645 77.211 C 101.604 77.224,101.402 77.303,101.197 77.386 M302.169 79.898 C 302.169 80.072,302.304 80.132,302.468 80.030 C 302.633 79.928,302.767 79.988,302.767 80.162 C 302.767 80.336,302.610 80.479,302.418 80.479 C 302.226 80.479,302.153 80.563,302.256 80.665 C 302.607 81.016,303.358 80.508,303.179 80.041 C 302.980 79.524,302.169 79.409,302.169 79.898 M306.205 84.605 C 305.836 84.868,305.727 85.919,306.092 85.693 C 306.238 85.603,306.366 85.706,306.376 85.921 C 306.387 86.136,306.526 85.987,306.685 85.589 C 306.990 84.826,306.708 84.246,306.205 84.605 M306.419 90.352 C 306.427 92.844,306.433 92.863,306.693 91.297 C 306.851 90.347,306.848 89.315,306.685 88.754 C 306.468 88.004,306.413 88.334,306.419 90.352 M306.380 101.629 C 306.548 102.072,306.656 103.785,306.619 105.436 C 306.582 107.086,306.497 108.272,306.430 108.070 C 306.223 107.451,305.909 107.664,305.909 108.423 C 305.909 108.819,306.010 109.080,306.133 109.004 C 306.441 108.814,306.407 109.256,306.074 109.782 C 305.899 110.060,305.950 110.573,306.218 111.214 C 306.482 111.847,306.512 112.138,306.300 112.006 C 306.070 111.864,306.025 112.025,306.157 112.519 C 306.263 112.915,306.351 113.474,306.353 113.762 C 306.356 114.050,306.492 114.286,306.657 114.286 C 307.081 114.286,307.029 111.487,306.597 111.055 C 306.318 110.775,306.318 110.616,306.597 110.337 C 307.175 109.759,307.097 100.823,306.515 100.823 C 306.159 100.823,306.133 100.979,306.380 101.629 M305.759 104.694 C 305.759 105.837,305.894 106.854,306.058 106.956 C 306.248 107.073,306.358 106.311,306.358 104.879 C 306.358 103.571,306.231 102.618,306.058 102.618 C 305.888 102.618,305.759 103.509,305.759 104.694 M162.266 111.619 C 160.932 112.006,160.652 112.480,160.312 114.937 C 160.145 116.137,159.819 117.575,159.586 118.132 C 159.353 118.690,159.162 119.873,159.162 120.762 C 159.162 123.076,158.685 123.002,174.031 123.061 C 184.037 123.099,187.344 123.201,187.623 123.479 C 188.190 124.047,187.977 127.319,187.166 130.480 C 186.770 132.022,186.358 134.428,186.250 135.826 C 186.142 137.225,185.730 139.716,185.333 141.361 C 184.937 143.007,184.468 145.632,184.290 147.195 C 184.112 148.758,183.706 151.057,183.389 152.303 C 183.072 153.548,182.667 155.904,182.490 157.538 C 182.313 159.172,181.909 161.451,181.593 162.603 C 181.276 163.755,180.871 166.043,180.692 167.689 C 180.513 169.334,180.098 171.742,179.770 173.038 C 178.801 176.875,178.327 181.541,178.861 181.985 C 179.177 182.248,182.198 182.390,189.798 182.499 C 201.252 182.663,201.784 182.599,202.134 181.005 C 202.225 180.592,202.351 180.052,202.414 179.806 C 202.476 179.559,202.670 178.082,202.845 176.524 C 203.019 174.966,203.422 172.673,203.740 171.429 C 204.057 170.184,204.457 167.931,204.628 166.421 C 204.799 164.911,205.209 162.559,205.538 161.195 C 205.867 159.830,206.276 157.435,206.448 155.871 C 206.619 154.308,207.018 152.068,207.333 150.894 C 207.649 149.720,208.057 147.499,208.238 145.958 C 208.420 144.417,208.964 141.430,209.445 139.320 C 209.927 137.210,210.322 134.744,210.322 133.840 C 210.322 132.936,210.653 130.758,211.059 129.000 C 211.464 127.242,211.871 125.314,211.964 124.715 C 212.231 122.981,212.719 122.896,221.583 123.051 C 236.577 123.312,240.330 123.270,240.996 122.834 C 242.891 121.592,244.184 113.089,242.665 111.859 C 241.894 111.234,164.391 111.003,162.266 111.619 M306.471 118.111 C 306.443 120.544,306.492 120.992,306.673 119.970 C 306.966 118.318,306.984 116.108,306.710 115.418 C 306.598 115.136,306.491 116.348,306.471 118.111 M306.058 129.116 C 306.058 132.816,306.135 133.552,306.565 133.978 C 307.040 134.448,307.059 134.445,306.864 133.932 C 306.750 133.631,306.657 131.443,306.657 129.071 C 306.657 126.394,306.543 124.757,306.358 124.757 C 306.172 124.757,306.058 126.410,306.058 129.116 M306.435 150.486 L 306.449 158.115 306.713 151.721 C 306.873 147.836,306.868 144.843,306.699 144.092 C 306.505 143.226,306.426 145.136,306.435 150.486 M306.258 165.345 C 305.929 165.674,306.024 172.027,306.358 172.027 C 306.540 172.027,306.657 170.681,306.657 168.586 C 306.657 165.153,306.634 164.969,306.258 165.345 M306.752 181.002 C 306.752 182.072,306.807 182.509,306.873 181.975 C 306.939 181.440,306.939 180.565,306.873 180.030 C 306.807 179.495,306.752 179.933,306.752 181.002 M306.507 193.746 C 306.507 195.787,306.608 197.457,306.731 197.457 C 306.855 197.457,306.956 195.849,306.956 193.885 C 306.956 191.920,306.855 190.250,306.731 190.173 C 306.608 190.097,306.507 191.705,306.507 193.746 M305.810 196.091 C 305.848 196.657,305.964 197.066,306.068 197.002 C 306.269 196.878,306.079 195.064,305.865 195.064 C 305.797 195.064,305.772 195.526,305.810 196.091 M306.418 198.667 C 306.187 199.037,306.167 199.252,306.364 199.252 C 306.535 199.252,306.755 199.044,306.853 198.790 C 307.122 198.089,306.831 198.006,306.418 198.667 M306.171 202.674 C 305.868 203.328,305.887 203.366,306.366 203.067 C 306.658 202.885,306.828 202.558,306.744 202.340 C 306.550 201.833,306.565 201.824,306.171 202.674 M282.792 218.998 C 282.480 219.497,282.493 219.596,282.870 219.596 C 283.118 219.596,283.321 219.540,283.321 219.471 C 283.321 219.402,283.403 219.133,283.502 218.873 C 283.763 218.195,283.235 218.288,282.792 218.998 M125.440 223.891 C 125.599 224.367,126.153 224.447,126.153 223.992 C 126.153 223.768,125.970 223.585,125.746 223.585 C 125.522 223.585,125.384 223.723,125.440 223.891 M133.882 228.571 C 133.780 228.736,133.915 228.871,134.181 228.871 C 134.471 228.871,134.579 229.009,134.452 229.216 C 134.316 229.435,134.370 229.480,134.598 229.339 C 134.874 229.169,134.876 229.018,134.608 228.694 C 134.191 228.192,134.123 228.181,133.882 228.571 M259.278 232.609 C 259.372 232.854,259.570 232.981,259.717 232.890 C 260.140 232.629,260.030 232.162,259.546 232.162 C 259.279 232.162,259.174 232.337,259.278 232.609 M251.085 237.322 C 251.126 237.528,250.991 237.663,250.785 237.622 C 250.580 237.580,250.411 237.681,250.411 237.846 C 250.411 238.252,250.812 238.223,251.249 237.786 C 251.686 237.349,251.715 236.948,251.309 236.948 C 251.144 236.948,251.043 237.117,251.085 237.322 M244.467 240.940 C 244.284 241.161,244.222 241.430,244.331 241.538 C 244.718 241.926,245.258 241.725,245.412 241.137 C 245.593 240.447,244.982 240.320,244.467 240.940 M241.918 242.804 C 241.792 243.132,241.888 243.245,242.235 243.178 C 242.509 243.125,242.789 242.913,242.857 242.708 C 243.040 242.157,242.130 242.251,241.918 242.804 M238.245 244.887 C 238.245 245.073,238.418 245.226,238.631 245.226 C 238.843 245.226,238.954 245.125,238.878 245.002 C 238.802 244.879,238.909 244.713,239.116 244.633 C 239.322 244.554,239.211 244.502,238.868 244.518 C 238.525 244.534,238.245 244.700,238.245 244.887 M236.048 246.077 C 235.740 246.447,235.785 246.522,236.313 246.522 C 236.663 246.522,236.948 246.395,236.948 246.241 C 236.948 245.722,236.422 245.626,236.048 246.077 M231.862 248.492 C 231.862 248.752,232.022 248.912,232.218 248.847 C 232.772 248.662,232.864 248.018,232.336 248.018 C 232.076 248.018,231.862 248.231,231.862 248.492 M169.387 249.710 C 169.440 249.982,169.720 250.240,170.007 250.282 C 170.616 250.371,170.683 250.084,170.172 249.574 C 169.661 249.063,169.274 249.130,169.387 249.710 M229.469 249.824 C 229.469 250.340,229.560 250.384,230.067 250.112 C 230.396 249.936,230.666 249.662,230.666 249.503 C 230.666 249.345,230.396 249.215,230.067 249.215 C 229.665 249.215,229.469 249.414,229.469 249.824 M221.515 254.525 C 221.644 254.755,221.546 254.899,221.259 254.899 C 221.003 254.899,220.793 255.034,220.793 255.198 C 220.793 255.571,221.107 255.573,221.688 255.206 C 222.068 254.966,222.073 254.867,221.719 254.538 C 221.408 254.249,221.357 254.246,221.515 254.525 M192.675 263.351 C 192.672 263.639,192.794 263.874,192.945 263.874 C 193.096 263.874,193.466 263.952,193.768 264.047 C 194.227 264.191,194.219 264.159,193.717 263.848 C 193.388 263.644,193.020 263.331,192.899 263.152 C 192.765 262.954,192.678 263.032,192.675 263.351 " stroke="none" fill="#f9f3f3" fill-rule="evenodd"></path><path id="path1" d="M199.746 24.161 C 199.655 24.307,199.034 24.607,198.365 24.828 C 197.696 25.049,197.000 25.409,196.818 25.629 C 196.635 25.849,196.169 26.028,195.782 26.028 C 195.365 26.028,194.707 26.436,194.167 27.030 C 193.666 27.581,192.713 28.210,192.051 28.429 C 191.388 28.648,190.741 29.014,190.612 29.244 C 190.483 29.474,189.851 29.735,189.206 29.824 C 188.322 29.946,187.885 30.213,187.435 30.906 C 187.105 31.411,186.470 31.922,186.021 32.040 C 185.573 32.158,184.848 32.537,184.410 32.881 C 183.930 33.260,183.178 33.508,182.512 33.508 C 181.555 33.508,181.353 33.637,180.981 34.480 C 180.651 35.231,180.240 35.555,179.178 35.901 C 178.422 36.148,177.571 36.586,177.287 36.874 C 177.003 37.162,176.399 37.397,175.944 37.397 C 175.358 37.397,174.804 37.745,174.043 38.594 C 173.452 39.252,172.773 39.791,172.534 39.791 C 172.296 39.791,171.936 39.989,171.734 40.231 C 171.533 40.474,170.877 40.762,170.277 40.872 C 169.591 40.997,168.851 41.438,168.287 42.057 C 167.794 42.599,166.986 43.136,166.492 43.251 C 165.999 43.366,165.325 43.694,164.996 43.981 C 164.667 44.269,163.927 44.588,163.351 44.691 C 162.640 44.818,162.111 45.168,161.705 45.780 C 161.335 46.338,160.692 46.796,160.020 46.979 C 159.422 47.141,158.772 47.469,158.574 47.706 C 158.377 47.944,157.611 48.229,156.872 48.340 C 155.853 48.492,155.467 48.705,155.270 49.222 C 154.925 50.129,153.833 50.860,152.824 50.860 C 152.309 50.860,151.884 51.083,151.683 51.458 C 151.507 51.788,151.087 52.057,150.750 52.057 C 150.414 52.057,149.563 52.528,148.859 53.105 C 147.104 54.543,144.946 55.647,143.888 55.647 C 143.403 55.647,143.007 55.808,143.007 56.005 C 143.007 56.637,141.421 58.040,140.707 58.040 C 140.326 58.040,139.755 58.300,139.438 58.617 C 139.121 58.935,138.481 59.258,138.017 59.336 C 136.621 59.571,136.125 59.867,135.676 60.734 C 135.387 61.294,134.930 61.620,134.257 61.746 C 133.711 61.849,133.035 62.201,132.753 62.529 C 132.390 62.954,131.871 63.126,130.955 63.126 C 129.761 63.126,129.647 63.197,129.381 64.099 C 129.143 64.908,128.859 65.146,127.687 65.520 C 126.913 65.767,126.112 66.137,125.907 66.343 C 125.702 66.548,125.228 66.717,124.854 66.717 C 124.466 66.717,123.971 67.024,123.706 67.429 C 123.449 67.820,122.608 68.460,121.837 68.850 C 121.065 69.240,120.253 69.727,120.031 69.933 C 119.810 70.138,119.133 70.307,118.528 70.307 C 117.567 70.308,117.351 70.448,116.829 71.414 C 116.394 72.216,115.946 72.592,115.194 72.784 C 114.624 72.930,113.796 73.307,113.353 73.623 C 112.910 73.938,112.131 74.196,111.622 74.196 C 111.076 74.196,110.696 74.351,110.696 74.573 C 110.696 75.208,109.214 76.589,108.534 76.589 C 108.181 76.589,107.614 76.849,107.274 77.167 C 106.935 77.484,106.051 77.813,105.310 77.896 C 104.570 77.980,103.930 78.056,103.889 78.067 C 103.848 78.077,103.815 78.293,103.815 78.548 C 103.815 79.226,102.447 80.479,101.706 80.479 C 101.355 80.479,100.724 80.748,100.306 81.077 C 99.888 81.406,99.285 81.675,98.967 81.675 C 97.977 81.675,99.391 83.349,100.583 83.587 C 101.117 83.694,101.962 84.167,102.460 84.638 C 102.958 85.108,103.872 85.655,104.490 85.852 C 105.108 86.050,105.753 86.469,105.922 86.785 C 106.131 87.177,106.549 87.360,107.235 87.360 C 108.009 87.360,108.451 87.600,109.160 88.407 C 109.729 89.056,110.351 89.454,110.795 89.454 C 111.189 89.454,112.019 89.858,112.640 90.352 C 113.261 90.845,114.006 91.249,114.295 91.249 C 114.584 91.249,115.243 91.643,115.758 92.125 C 116.274 92.606,117.105 93.090,117.605 93.200 C 118.490 93.394,119.185 94.383,118.842 94.960 C 118.752 95.112,118.852 95.125,119.069 94.991 C 120.241 94.266,121.911 94.958,122.204 96.288 C 122.367 97.032,122.480 97.088,123.599 96.981 C 124.654 96.880,124.929 96.989,125.667 97.797 C 126.265 98.451,126.791 98.728,127.433 98.728 C 128.313 98.728,129.544 99.598,129.544 100.220 C 129.544 100.382,130.161 100.670,130.916 100.860 C 131.670 101.050,132.358 101.389,132.443 101.613 C 132.529 101.836,132.872 102.019,133.205 102.019 C 133.960 102.019,135.709 103.077,135.937 103.671 C 136.030 103.914,136.387 104.114,136.729 104.114 C 137.570 104.114,139.004 104.882,139.221 105.449 C 139.332 105.737,139.775 105.909,140.405 105.909 C 141.202 105.909,141.637 106.159,142.487 107.105 C 143.117 107.807,143.831 108.302,144.213 108.302 C 144.572 108.302,145.265 108.639,145.754 109.050 C 146.243 109.461,146.969 109.798,147.368 109.798 C 148.084 109.798,149.289 110.728,149.289 111.280 C 149.289 111.437,149.756 111.654,150.326 111.760 C 151.585 111.997,152.013 112.457,151.785 113.329 C 151.498 114.425,149.626 113.915,149.015 112.574 C 148.742 111.975,148.514 111.856,147.875 111.979 C 146.834 112.178,145.699 111.735,145.699 111.130 C 145.699 110.351,144.901 109.762,144.114 109.959 C 143.617 110.084,143.137 109.923,142.531 109.427 C 142.052 109.035,141.090 108.550,140.394 108.348 C 139.697 108.147,138.986 107.717,138.813 107.394 C 138.636 107.064,138.188 106.806,137.791 106.806 C 137.380 106.806,136.641 106.364,136.029 105.753 C 135.253 104.976,134.751 104.716,134.121 104.764 C 133.058 104.845,132.576 104.558,132.225 103.636 C 132.007 103.062,131.736 102.917,130.884 102.917 C 130.014 102.917,129.721 102.753,129.307 102.032 C 128.880 101.288,128.554 101.116,127.261 100.955 C 126.028 100.800,125.658 100.620,125.396 100.045 C 125.216 99.650,124.817 99.327,124.509 99.327 C 124.201 99.327,123.398 98.927,122.724 98.439 C 122.049 97.951,121.121 97.461,120.659 97.351 C 119.531 97.081,119.073 96.680,119.073 95.964 C 119.073 95.478,118.924 95.396,118.265 95.522 C 117.155 95.734,116.296 95.352,115.799 94.424 C 115.480 93.828,115.151 93.642,114.409 93.642 C 113.044 93.642,112.486 93.371,112.176 92.555 C 111.965 92.000,111.685 91.847,110.878 91.847 C 110.122 91.847,109.624 91.609,109.002 90.950 C 108.534 90.454,107.844 90.052,107.461 90.052 C 106.642 90.052,105.785 89.630,104.989 88.833 C 104.672 88.516,104.169 88.257,103.870 88.257 C 103.572 88.257,102.941 87.853,102.468 87.360 C 101.898 86.765,101.315 86.462,100.737 86.462 C 100.167 86.462,99.592 86.170,99.073 85.614 C 98.164 84.642,94.956 84.002,94.683 84.738 C 94.121 86.254,94.423 204.620,94.989 204.701 C 95.359 204.754,95.587 205.015,95.587 205.385 C 95.587 205.859,95.836 206.015,96.784 206.133 C 97.756 206.255,97.977 206.399,97.962 206.904 C 97.948 207.388,98.091 207.496,98.611 207.397 C 99.128 207.298,99.300 207.426,99.377 207.968 C 99.466 208.592,99.611 208.657,100.748 208.574 C 101.993 208.483,102.174 208.641,102.076 209.736 C 102.068 209.825,102.531 209.843,103.106 209.775 C 103.974 209.674,104.180 209.761,104.317 210.287 C 104.408 210.635,104.669 210.920,104.897 210.920 C 105.124 210.920,105.310 211.189,105.310 211.518 C 105.310 212.149,105.432 212.198,107.105 212.240 C 107.944 212.261,108.153 212.385,108.153 212.865 C 108.153 213.340,108.383 213.482,109.274 213.556 C 110.008 213.617,110.396 213.798,110.396 214.079 C 110.396 214.316,110.666 214.510,110.995 214.510 C 111.388 214.510,111.593 214.710,111.593 215.091 C 111.593 215.846,112.094 216.135,113.267 216.056 C 114.223 215.991,114.924 216.713,114.194 217.010 C 113.998 217.090,114.461 217.166,115.223 217.179 C 116.369 217.199,116.638 217.312,116.774 217.831 C 116.864 218.177,117.082 218.371,117.257 218.262 C 117.549 218.082,117.708 218.632,117.609 219.479 C 117.582 219.702,118.146 219.767,119.326 219.677 C 120.893 219.558,121.100 219.608,121.240 220.143 C 121.329 220.484,121.701 220.785,122.104 220.842 C 122.494 220.897,122.829 221.111,122.850 221.316 C 122.870 221.522,122.904 221.833,122.924 222.007 C 122.945 222.181,123.087 222.247,123.240 222.152 C 123.527 221.975,123.991 222.507,124.011 223.037 C 124.017 223.201,124.255 223.296,124.539 223.248 C 124.824 223.200,125.056 223.323,125.056 223.522 C 125.056 223.721,125.146 223.794,125.256 223.684 C 125.366 223.574,125.734 223.720,126.074 224.008 C 126.661 224.506,126.671 224.507,126.286 224.009 C 125.922 223.539,125.964 223.485,126.702 223.485 C 127.362 223.485,127.456 223.565,127.183 223.894 C 126.731 224.440,127.497 225.101,128.291 224.850 C 129.099 224.593,129.843 224.950,129.843 225.594 C 129.843 225.983,130.018 226.110,130.441 226.028 C 130.770 225.965,131.040 226.040,131.040 226.195 C 131.040 226.350,130.748 226.477,130.391 226.477 C 128.491 226.477,130.450 226.965,132.642 227.037 C 133.536 227.067,133.757 227.177,133.624 227.524 C 133.529 227.771,133.590 227.973,133.759 227.973 C 133.928 227.973,133.984 228.106,133.884 228.269 C 133.779 228.438,133.899 228.489,134.165 228.386 C 134.421 228.288,134.630 228.357,134.630 228.539 C 134.630 228.722,134.473 228.871,134.281 228.871 C 133.752 228.871,134.165 229.172,134.882 229.310 C 135.230 229.377,135.502 229.340,135.486 229.226 C 135.379 228.474,135.544 228.135,135.811 228.557 C 135.962 228.796,136.020 229.099,135.939 229.230 C 135.792 229.468,136.238 229.584,136.948 229.491 C 137.157 229.464,137.322 229.760,137.322 230.161 C 137.322 230.811,137.442 230.876,138.591 230.847 C 139.905 230.814,140.403 231.462,139.423 231.930 C 139.173 232.049,139.695 232.123,140.585 232.095 C 142.002 232.049,142.231 232.123,142.445 232.700 C 142.579 233.062,142.895 233.358,143.147 233.358 C 143.406 233.358,143.605 233.619,143.605 233.957 C 143.605 234.448,143.806 234.556,144.727 234.560 C 145.923 234.564,146.712 234.901,146.548 235.336 C 146.492 235.483,146.878 235.644,147.405 235.695 C 148.039 235.756,148.425 235.984,148.547 236.368 C 148.649 236.687,148.924 236.948,149.160 236.948 C 149.396 236.948,149.589 237.136,149.589 237.365 C 149.589 237.891,150.241 238.145,151.593 238.145 C 152.503 238.145,152.628 238.228,152.494 238.743 C 152.324 239.392,152.733 239.580,152.981 238.968 C 153.101 238.669,153.136 238.669,153.155 238.968 C 153.168 239.179,153.571 239.342,154.082 239.342 C 154.876 239.342,154.970 239.430,154.853 240.071 C 154.755 240.611,154.832 240.759,155.147 240.638 C 155.402 240.540,155.572 240.660,155.572 240.938 C 155.572 241.555,156.012 241.793,157.323 241.886 C 159.389 242.034,159.361 242.024,158.782 242.361 C 158.052 242.786,158.407 243.220,159.345 243.050 C 160.382 242.862,161.261 243.171,161.074 243.657 C 160.991 243.874,161.133 244.132,161.389 244.230 C 161.645 244.329,161.855 244.701,161.855 245.057 C 161.855 245.650,161.967 245.691,163.145 245.529 C 165.107 245.260,165.823 245.537,165.629 246.488 C 165.541 246.918,165.534 247.126,165.614 246.949 C 165.885 246.348,167.608 246.827,167.443 247.457 C 167.321 247.924,167.466 248.018,168.315 248.018 C 169.135 248.018,169.334 248.135,169.334 248.616 C 169.334 249.126,169.534 249.215,170.681 249.215 C 171.827 249.215,172.027 249.303,172.027 249.813 C 172.027 250.299,172.226 250.411,173.092 250.411 C 173.725 250.411,174.082 250.533,173.972 250.711 C 173.870 250.875,173.963 251.014,174.178 251.019 C 174.435 251.025,174.387 251.168,174.038 251.433 C 173.566 251.791,173.559 251.857,173.978 252.018 C 174.252 252.123,174.374 252.075,174.269 251.904 C 174.166 251.738,174.423 251.608,174.851 251.608 C 175.464 251.608,175.617 251.754,175.617 252.338 C 175.617 253.006,175.725 253.063,176.889 253.011 C 177.935 252.964,178.153 253.047,178.119 253.478 C 178.076 254.014,178.287 254.104,179.384 254.019 C 180.136 253.961,181.900 255.528,181.900 256.254 C 181.900 256.689,182.089 256.740,183.096 256.579 C 184.292 256.388,184.447 256.507,184.316 257.517 C 184.284 257.761,184.678 257.891,185.457 257.891 C 186.384 257.891,186.688 258.023,186.836 258.489 C 186.941 258.818,187.219 259.088,187.455 259.088 C 187.690 259.088,187.883 259.357,187.883 259.686 C 187.883 260.208,188.083 260.284,189.457 260.284 C 190.706 260.284,191.107 260.407,191.404 260.883 C 191.615 261.221,192.102 261.481,192.523 261.481 C 192.933 261.481,193.235 261.582,193.194 261.705 C 193.153 261.829,193.427 262.238,193.803 262.614 C 194.179 262.990,194.407 263.428,194.309 263.586 C 194.111 263.906,194.398 263.956,196.009 263.882 C 196.789 263.847,197.196 263.989,197.421 264.377 C 197.595 264.676,197.742 264.753,197.747 264.547 C 197.752 264.342,198.025 264.174,198.355 264.174 C 199.283 264.174,199.302 184.202,198.374 183.705 C 198.012 183.512,194.426 183.396,188.791 183.396 C 177.689 183.396,176.316 183.039,177.541 180.471 C 177.886 179.748,178.155 178.116,178.325 175.712 C 178.468 173.700,178.789 171.341,179.039 170.470 C 179.289 169.599,179.765 166.945,180.096 164.574 C 180.452 162.024,180.897 159.958,181.185 159.519 C 181.514 159.016,181.760 157.608,181.946 155.155 C 182.097 153.163,182.472 150.524,182.780 149.289 C 183.088 148.055,183.425 146.305,183.529 145.400 C 183.957 141.688,184.396 139.507,184.923 138.465 C 185.404 137.515,185.476 136.692,185.449 132.462 C 185.424 128.482,185.509 127.383,185.903 126.622 C 186.885 124.723,186.980 124.757,180.671 124.757 C 175.344 124.757,174.969 124.793,175.170 125.280 C 175.774 126.747,175.739 126.815,174.431 126.722 C 172.857 126.610,172.451 126.239,172.928 125.349 C 173.279 124.693,173.260 124.683,171.983 124.868 C 171.137 124.991,170.156 124.891,169.185 124.583 C 168.318 124.308,165.912 124.022,163.463 123.902 C 158.299 123.650,158.265 123.629,158.265 120.796 C 158.265 118.753,158.236 118.674,157.068 117.506 C 155.608 116.046,155.603 116.181,157.143 115.485 C 159.188 114.562,159.366 114.317,159.517 112.219 C 159.761 108.854,154.881 109.200,202.142 109.200 C 238.037 109.200,243.371 109.256,244.125 109.647 C 245.188 110.196,245.924 111.203,245.924 112.108 C 245.924 112.991,247.045 113.035,248.018 112.191 C 248.397 111.862,248.923 111.593,249.187 111.593 C 249.450 111.593,250.044 111.192,250.507 110.702 C 250.969 110.211,251.876 109.652,252.520 109.459 C 253.165 109.266,253.918 108.859,254.193 108.555 C 254.468 108.252,255.081 108.003,255.556 108.003 C 256.174 108.003,256.742 107.663,257.557 106.806 C 258.293 106.033,258.960 105.610,259.444 105.610 C 259.855 105.610,260.433 105.343,260.728 105.017 C 261.023 104.691,261.725 104.338,262.288 104.232 C 262.925 104.113,263.554 103.713,263.952 103.175 C 264.340 102.650,265.063 102.183,265.792 101.987 C 266.451 101.809,267.136 101.465,267.313 101.223 C 267.490 100.981,268.209 100.706,268.910 100.612 C 269.916 100.477,270.276 100.264,270.620 99.599 C 271.009 98.847,272.449 98.138,273.600 98.132 C 273.767 98.131,274.059 97.880,274.250 97.573 C 274.442 97.267,275.219 96.860,275.977 96.669 C 276.964 96.420,277.452 96.111,277.695 95.579 C 277.922 95.080,278.431 94.729,279.245 94.510 C 279.912 94.330,280.783 93.927,281.182 93.614 C 281.580 93.300,282.107 93.044,282.353 93.044 C 282.598 93.044,283.321 92.573,283.959 91.997 C 284.596 91.421,285.367 90.950,285.671 90.950 C 285.976 90.950,286.588 90.613,287.032 90.202 C 287.519 89.751,288.194 89.454,288.733 89.454 C 289.387 89.454,289.933 89.133,290.766 88.257 C 291.502 87.484,292.169 87.061,292.652 87.061 C 293.064 87.061,293.637 86.799,293.926 86.479 C 294.216 86.159,294.876 85.806,295.394 85.694 C 295.911 85.582,296.840 85.035,297.458 84.480 C 298.075 83.925,298.816 83.466,299.103 83.461 C 299.922 83.446,301.793 81.675,300.990 81.675 C 299.038 81.675,295.439 78.752,296.092 77.696 C 296.208 77.508,296.124 77.490,295.869 77.647 C 295.159 78.086,293.374 77.811,292.847 77.182 C 292.554 76.833,291.980 76.589,291.452 76.589 C 290.595 76.589,289.005 75.214,289.005 74.472 C 289.005 74.320,288.555 74.196,288.004 74.196 C 287.432 74.196,286.707 73.939,286.313 73.598 C 285.933 73.269,285.495 72.999,285.340 72.999 C 284.547 72.999,283.057 71.984,282.894 71.333 C 282.756 70.787,282.508 70.605,281.894 70.601 C 281.445 70.599,280.740 70.405,280.329 70.171 C 279.918 69.936,279.177 69.554,278.684 69.321 C 278.190 69.088,277.201 68.407,276.486 67.807 C 275.771 67.207,274.993 66.717,274.757 66.717 C 274.520 66.717,274.252 66.521,274.160 66.282 C 274.068 66.043,273.404 65.759,272.683 65.651 C 271.246 65.436,270.829 65.088,270.487 63.819 C 270.276 63.040,270.164 62.984,268.986 63.080 C 268.036 63.157,267.548 63.033,267.065 62.593 C 266.709 62.269,265.946 61.851,265.370 61.664 C 264.725 61.456,264.064 60.925,263.647 60.281 C 263.095 59.429,262.786 59.237,261.964 59.237 C 261.409 59.237,260.789 59.036,260.585 58.790 C 260.381 58.545,259.689 58.202,259.047 58.029 C 258.235 57.811,257.675 57.401,257.212 56.685 C 256.700 55.894,256.335 55.652,255.647 55.644 C 255.153 55.638,254.413 55.370,254.001 55.049 C 253.590 54.727,253.082 54.461,252.873 54.457 C 252.664 54.453,251.908 53.912,251.194 53.254 C 250.480 52.595,249.629 52.057,249.302 52.057 C 248.976 52.057,248.465 51.788,248.168 51.458 C 247.870 51.129,247.269 50.860,246.832 50.860 C 245.779 50.860,245.065 50.301,244.786 49.258 C 244.579 48.486,244.426 48.400,243.153 48.349 C 242.137 48.309,241.577 48.110,241.131 47.632 C 240.792 47.268,240.206 46.971,239.828 46.971 C 239.405 46.971,238.728 46.511,238.066 45.774 C 237.261 44.876,236.765 44.577,236.083 44.577 C 235.481 44.577,235.066 44.376,234.854 43.979 C 234.659 43.614,234.228 43.381,233.750 43.381 C 233.225 43.381,232.591 42.986,231.828 42.184 C 231.202 41.526,230.462 40.987,230.184 40.987 C 229.327 40.987,226.432 39.394,225.426 38.369 C 224.901 37.835,224.183 37.397,223.829 37.397 C 223.476 37.397,222.917 37.128,222.588 36.799 C 222.259 36.470,221.808 36.200,221.585 36.200 C 220.403 36.200,219.299 35.501,218.948 34.529 C 218.607 33.586,218.481 33.508,217.314 33.508 C 216.505 33.508,215.863 33.319,215.533 32.984 C 215.250 32.696,214.601 32.316,214.091 32.139 C 213.581 31.962,212.895 31.406,212.565 30.902 C 212.120 30.220,211.674 29.946,210.822 29.828 C 210.192 29.741,209.452 29.473,209.176 29.233 C 208.901 28.993,208.205 28.645,207.629 28.459 C 207.001 28.256,206.297 27.702,205.870 27.074 C 205.299 26.234,204.964 26.028,204.171 26.028 C 203.628 26.028,203.000 25.844,202.775 25.619 C 202.550 25.394,202.035 25.109,201.632 24.985 C 201.228 24.862,200.675 24.566,200.404 24.328 C 200.132 24.090,199.836 24.015,199.746 24.161 M154.912 114.059 C 155.426 114.486,155.251 115.602,154.651 115.716 C 153.258 115.981,151.926 114.441,152.796 113.572 C 153.058 113.310,154.374 113.613,154.912 114.059 M213.313 128.048 C 213.313 131.615,213.472 131.900,214.809 130.740 C 215.189 130.411,215.668 130.142,215.874 130.142 C 216.080 130.142,216.813 129.671,217.502 129.095 C 218.191 128.519,218.926 128.048,219.134 128.048 C 219.342 128.048,219.998 127.718,220.592 127.315 C 221.186 126.912,222.151 126.493,222.736 126.383 C 223.641 126.213,224.383 125.557,224.383 124.926 C 224.383 124.833,221.892 124.757,218.848 124.757 L 213.313 124.757 213.313 128.048 M178.527 127.347 C 178.693 127.854,176.884 128.179,176.353 127.739 C 176.113 127.539,175.916 127.250,175.916 127.097 C 175.916 126.695,178.390 126.932,178.527 127.347 M181.419 129.387 C 181.844 130.035,181.829 130.086,181.185 130.209 C 179.652 130.502,178.535 129.351,179.713 128.692 C 180.364 128.327,180.856 128.528,181.419 129.387 M184.564 130.856 C 185.111 131.515,184.218 132.082,183.419 131.583 C 183.077 131.370,182.797 131.055,182.797 130.883 C 182.797 130.415,184.181 130.394,184.564 130.856 M306.254 203.988 C 305.982 204.289,305.763 204.659,305.768 204.810 C 305.773 204.962,305.916 204.848,306.086 204.556 C 306.255 204.265,306.498 204.091,306.625 204.169 C 306.752 204.248,306.856 204.116,306.856 203.876 C 306.856 203.328,306.851 203.329,306.254 203.988 M128.352 225.337 C 128.349 225.659,128.564 225.825,128.945 225.797 C 129.588 225.748,129.730 225.431,129.245 225.131 C 129.080 225.029,128.943 225.122,128.941 225.338 C 128.937 225.622,128.857 225.607,128.646 225.280 C 128.396 224.894,128.356 224.901,128.352 225.337 " stroke="none" fill="#9f1c20" fill-rule="evenodd"></path><path id="path2" d="M197.959 21.751 C 197.638 21.834,197.480 22.066,197.575 22.315 C 197.692 22.620,197.491 22.737,196.849 22.737 C 196.361 22.737,195.715 22.983,195.415 23.284 C 195.114 23.584,194.643 23.917,194.368 24.022 C 194.092 24.128,193.867 24.437,193.867 24.709 C 193.867 25.136,193.798 25.148,193.361 24.794 C 193.017 24.515,192.926 24.503,193.079 24.757 C 193.282 25.094,192.924 25.198,191.847 25.113 C 191.724 25.104,191.550 25.406,191.462 25.786 C 191.334 26.331,191.065 26.497,190.190 26.570 C 189.338 26.641,189.080 26.793,189.080 27.223 C 189.080 27.612,188.828 27.813,188.257 27.878 C 187.805 27.930,187.464 28.128,187.499 28.316 C 187.538 28.524,187.302 28.602,186.901 28.515 C 186.366 28.398,186.325 28.432,186.687 28.690 C 187.043 28.945,186.935 29.012,186.163 29.016 C 185.392 29.019,185.191 29.144,185.191 29.619 C 185.191 30.106,184.991 30.217,184.116 30.217 C 183.292 30.217,183.004 30.357,182.884 30.815 C 182.747 31.340,181.959 31.599,180.946 31.455 C 180.832 31.439,180.655 31.692,180.552 32.018 C 180.438 32.376,180.099 32.610,179.692 32.610 C 179.323 32.610,178.732 32.880,178.379 33.209 C 178.025 33.538,177.529 33.807,177.275 33.807 C 177.021 33.807,176.814 33.942,176.814 34.106 C 176.814 34.271,176.713 34.389,176.589 34.370 C 175.893 34.260,175.327 34.453,175.393 34.779 C 175.435 34.991,175.187 35.144,174.822 35.133 C 174.368 35.118,174.206 35.264,174.275 35.623 C 174.375 36.143,172.872 36.687,172.304 36.336 C 172.161 36.248,171.959 36.518,171.854 36.936 C 171.690 37.587,171.496 37.696,170.499 37.696 C 169.858 37.696,169.350 37.797,169.370 37.921 C 169.474 38.582,169.272 38.893,168.736 38.893 C 168.337 38.893,168.138 39.092,168.138 39.491 C 168.138 39.990,167.938 40.090,166.941 40.090 C 165.843 40.090,165.590 40.287,165.706 41.053 C 165.723 41.171,165.289 41.251,164.741 41.231 C 163.595 41.187,163.052 41.445,163.052 42.031 C 163.052 42.257,162.749 42.485,162.378 42.537 C 162.008 42.590,161.705 42.790,161.705 42.982 C 161.705 43.174,161.604 43.432,161.481 43.555 C 161.358 43.679,161.257 43.563,161.257 43.299 C 161.257 43.034,161.129 42.739,160.973 42.642 C 160.817 42.546,160.742 42.740,160.806 43.074 C 160.898 43.549,160.765 43.680,160.192 43.680 C 159.669 43.680,159.461 43.844,159.461 44.258 C 159.461 44.701,159.261 44.831,158.607 44.812 C 157.581 44.783,157.068 45.060,157.068 45.642 C 157.068 45.879,156.765 46.096,156.395 46.124 C 156.025 46.153,155.520 46.206,155.273 46.242 C 155.026 46.279,154.690 46.325,154.525 46.345 C 154.361 46.365,154.428 46.514,154.675 46.676 C 155.269 47.067,154.493 47.639,153.702 47.393 C 153.354 47.284,153.179 47.390,153.179 47.709 C 153.179 48.097,153.064 48.127,152.576 47.866 C 151.935 47.523,151.813 48.083,152.431 48.537 C 152.595 48.658,152.158 48.759,151.458 48.761 C 150.759 48.764,150.187 48.901,150.187 49.065 C 150.187 49.230,150.322 49.364,150.486 49.364 C 150.651 49.364,150.785 49.499,150.785 49.663 C 150.785 49.828,150.684 49.947,150.561 49.927 C 149.504 49.760,148.617 50.030,148.479 50.561 C 148.368 50.984,148.071 51.159,147.462 51.159 C 146.926 51.159,146.461 51.385,146.228 51.758 C 145.979 52.157,145.531 52.356,144.879 52.356 C 144.343 52.356,143.904 52.499,143.904 52.673 C 143.904 52.847,143.736 52.889,143.530 52.765 C 143.276 52.612,143.288 52.703,143.567 53.047 C 143.932 53.497,143.894 53.553,143.228 53.553 C 142.722 53.553,142.426 53.754,142.317 54.170 C 142.228 54.509,141.977 54.762,141.758 54.732 C 140.447 54.555,139.716 54.775,139.716 55.348 C 139.716 55.677,139.514 55.963,139.267 55.984 C 139.020 56.004,138.684 56.055,138.519 56.096 C 138.355 56.137,138.018 56.187,137.771 56.208 C 137.524 56.228,137.322 56.447,137.322 56.694 C 137.322 57.087,136.769 57.295,136.043 57.176 C 135.915 57.154,135.732 57.340,135.637 57.587 C 135.542 57.835,135.344 57.962,135.197 57.871 C 135.049 57.780,134.929 57.827,134.929 57.975 C 134.929 58.123,134.592 58.397,134.179 58.585 C 133.767 58.773,133.464 59.098,133.506 59.306 C 133.555 59.549,133.165 59.720,132.427 59.781 C 131.585 59.850,131.231 60.032,131.121 60.454 C 131.038 60.772,130.716 61.032,130.406 61.032 C 130.069 61.032,129.843 61.243,129.842 61.556 C 129.842 61.946,129.559 62.100,128.735 62.159 C 127.663 62.235,127.035 62.698,127.337 63.187 C 127.418 63.318,126.938 63.426,126.270 63.426 C 125.256 63.426,125.056 63.524,125.056 64.024 C 125.056 64.424,124.857 64.622,124.454 64.622 C 123.818 64.622,122.821 65.107,122.112 65.761 C 121.879 65.977,121.520 66.088,121.315 66.009 C 121.103 65.928,120.958 66.080,120.980 66.361 C 121.004 66.678,120.750 66.886,120.269 66.942 C 119.858 66.989,119.353 67.048,119.147 67.072 C 118.942 67.096,118.773 67.362,118.773 67.664 C 118.773 68.171,118.307 68.359,117.352 68.235 C 117.146 68.208,116.821 68.529,116.631 68.947 C 116.357 69.547,116.067 69.708,115.257 69.708 C 114.481 69.708,114.191 69.855,114.073 70.307 C 113.987 70.636,113.725 70.905,113.490 70.905 C 113.256 70.905,112.775 71.174,112.422 71.503 C 112.068 71.832,111.456 72.102,111.060 72.102 C 110.592 72.102,110.286 72.311,110.184 72.700 C 110.065 73.154,109.776 73.298,108.987 73.298 C 108.199 73.298,107.909 73.443,107.791 73.897 C 107.647 74.446,107.083 74.627,105.684 74.576 C 105.479 74.568,105.310 74.816,105.310 75.127 C 105.310 75.486,105.100 75.692,104.732 75.692 C 104.414 75.692,104.069 75.961,103.964 76.290 C 103.823 76.735,103.511 76.889,102.747 76.889 C 101.922 76.889,101.720 77.005,101.720 77.484 C 101.720 77.901,101.520 78.078,101.047 78.078 C 99.620 78.075,99.307 78.208,99.137 78.889 C 98.999 79.436,98.784 79.575,98.173 79.512 C 97.600 79.453,97.306 79.614,97.089 80.105 C 96.907 80.517,96.529 80.778,96.115 80.778 C 94.936 80.778,93.986 82.155,94.205 83.545 C 94.225 83.669,93.971 83.770,93.640 83.770 C 93.041 83.770,93.040 83.899,93.049 143.727 C 93.059 206.332,93.024 204.458,94.157 203.325 C 94.286 203.196,94.458 176.412,94.540 143.805 L 94.690 84.518 96.468 84.623 C 97.972 84.713,98.372 84.863,99.057 85.596 C 99.591 86.168,100.162 86.462,100.737 86.462 C 101.315 86.462,101.898 86.765,102.468 87.360 C 102.941 87.853,103.572 88.257,103.870 88.257 C 104.169 88.257,104.672 88.516,104.989 88.833 C 105.785 89.630,106.642 90.052,107.461 90.052 C 107.844 90.052,108.534 90.454,109.002 90.950 C 109.624 91.609,110.122 91.847,110.878 91.847 C 111.685 91.847,111.965 92.000,112.176 92.555 C 112.486 93.371,113.044 93.642,114.409 93.642 C 115.151 93.642,115.480 93.828,115.799 94.424 C 116.296 95.352,117.155 95.734,118.265 95.522 C 118.924 95.396,119.073 95.478,119.073 95.964 C 119.073 96.680,119.531 97.081,120.659 97.351 C 121.121 97.461,122.049 97.951,122.724 98.439 C 123.398 98.927,124.201 99.327,124.509 99.327 C 124.817 99.327,125.216 99.650,125.396 100.045 C 125.658 100.620,126.028 100.800,127.261 100.955 C 128.554 101.116,128.880 101.288,129.307 102.032 C 129.721 102.753,130.014 102.917,130.884 102.917 C 131.736 102.917,132.007 103.062,132.225 103.636 C 132.576 104.558,133.058 104.845,134.121 104.764 C 134.751 104.716,135.253 104.976,136.029 105.753 C 136.641 106.364,137.380 106.806,137.791 106.806 C 138.188 106.806,138.636 107.064,138.813 107.394 C 138.986 107.717,139.697 108.147,140.394 108.348 C 141.090 108.550,142.052 109.035,142.531 109.427 C 143.137 109.923,143.617 110.084,144.114 109.959 C 144.901 109.762,145.699 110.351,145.699 111.130 C 145.699 111.735,146.834 112.178,147.875 111.979 C 148.514 111.856,148.742 111.975,149.015 112.574 C 149.626 113.915,151.498 114.425,151.785 113.329 C 152.013 112.457,151.585 111.997,150.326 111.760 C 149.756 111.654,149.289 111.437,149.289 111.280 C 149.289 110.728,148.084 109.798,147.368 109.798 C 146.969 109.798,146.243 109.461,145.754 109.050 C 145.265 108.639,144.572 108.302,144.213 108.302 C 143.831 108.302,143.117 107.807,142.487 107.105 C 141.637 106.159,141.202 105.909,140.405 105.909 C 139.775 105.909,139.332 105.737,139.221 105.449 C 139.004 104.882,137.570 104.114,136.729 104.114 C 136.387 104.114,136.030 103.914,135.937 103.671 C 135.709 103.077,133.960 102.019,133.205 102.019 C 132.872 102.019,132.529 101.836,132.443 101.613 C 132.358 101.389,131.670 101.050,130.916 100.860 C 130.161 100.670,129.544 100.382,129.544 100.220 C 129.544 99.598,128.313 98.728,127.433 98.728 C 126.791 98.728,126.265 98.451,125.667 97.797 C 124.929 96.989,124.654 96.880,123.599 96.981 C 122.480 97.088,122.367 97.032,122.204 96.288 C 121.911 94.958,120.241 94.266,119.069 94.991 C 118.852 95.125,118.752 95.112,118.842 94.960 C 119.185 94.383,118.490 93.394,117.605 93.200 C 117.105 93.090,116.274 92.606,115.758 92.125 C 115.243 91.643,114.584 91.249,114.295 91.249 C 114.006 91.249,113.261 90.845,112.640 90.352 C 112.019 89.858,111.189 89.454,110.795 89.454 C 110.351 89.454,109.729 89.056,109.160 88.407 C 108.451 87.600,108.009 87.360,107.235 87.360 C 106.549 87.360,106.131 87.177,105.922 86.785 C 105.753 86.469,105.108 86.050,104.490 85.852 C 103.872 85.655,102.958 85.108,102.460 84.638 C 101.962 84.167,101.117 83.694,100.583 83.587 C 99.391 83.349,97.977 81.675,98.967 81.675 C 99.285 81.675,99.888 81.406,100.306 81.077 C 100.724 80.748,101.355 80.479,101.706 80.479 C 102.447 80.479,103.815 79.226,103.815 78.548 C 103.815 78.293,103.848 78.077,103.889 78.067 C 103.930 78.056,104.570 77.980,105.310 77.896 C 106.051 77.813,106.935 77.484,107.274 77.167 C 107.614 76.849,108.181 76.589,108.534 76.589 C 109.214 76.589,110.696 75.208,110.696 74.573 C 110.696 74.351,111.076 74.196,111.622 74.196 C 112.131 74.196,112.910 73.938,113.353 73.623 C 113.796 73.307,114.624 72.930,115.194 72.784 C 115.946 72.592,116.394 72.216,116.829 71.414 C 117.351 70.448,117.567 70.308,118.528 70.307 C 119.133 70.307,119.810 70.138,120.031 69.933 C 120.253 69.727,121.065 69.240,121.837 68.850 C 122.608 68.460,123.449 67.820,123.706 67.429 C 123.971 67.024,124.466 66.717,124.854 66.717 C 125.228 66.717,125.702 66.548,125.907 66.343 C 126.112 66.137,126.913 65.767,127.687 65.520 C 128.859 65.146,129.143 64.908,129.381 64.099 C 129.647 63.197,129.761 63.126,130.955 63.126 C 131.871 63.126,132.390 62.954,132.753 62.529 C 133.035 62.201,133.711 61.849,134.257 61.746 C 134.930 61.620,135.387 61.294,135.676 60.734 C 136.125 59.867,136.621 59.571,138.017 59.336 C 138.481 59.258,139.121 58.935,139.438 58.617 C 139.755 58.300,140.326 58.040,140.707 58.040 C 141.421 58.040,143.007 56.637,143.007 56.005 C 143.007 55.808,143.403 55.647,143.888 55.647 C 144.946 55.647,147.104 54.543,148.859 53.105 C 149.563 52.528,150.414 52.057,150.750 52.057 C 151.087 52.057,151.507 51.788,151.683 51.458 C 151.884 51.083,152.309 50.860,152.824 50.860 C 153.833 50.860,154.925 50.129,155.270 49.222 C 155.467 48.705,155.853 48.492,156.872 48.340 C 157.611 48.229,158.377 47.944,158.574 47.706 C 158.772 47.469,159.422 47.141,160.020 46.979 C 160.692 46.796,161.335 46.338,161.705 45.780 C 162.111 45.168,162.640 44.818,163.351 44.691 C 163.927 44.588,164.667 44.269,164.996 43.981 C 165.325 43.694,165.999 43.366,166.492 43.251 C 166.986 43.136,167.794 42.599,168.287 42.057 C 168.851 41.438,169.591 40.997,170.277 40.872 C 170.877 40.762,171.533 40.474,171.734 40.231 C 171.936 39.989,172.296 39.791,172.534 39.791 C 172.773 39.791,173.452 39.252,174.043 38.594 C 174.804 37.745,175.358 37.397,175.944 37.397 C 176.399 37.397,177.003 37.162,177.287 36.874 C 177.571 36.586,178.422 36.148,179.178 35.901 C 180.240 35.555,180.651 35.231,180.981 34.480 C 181.353 33.637,181.555 33.508,182.512 33.508 C 183.178 33.508,183.930 33.260,184.410 32.881 C 184.848 32.537,185.573 32.158,186.021 32.040 C 186.470 31.922,187.105 31.411,187.435 30.906 C 187.885 30.213,188.322 29.946,189.206 29.824 C 189.851 29.735,190.483 29.474,190.612 29.244 C 190.741 29.014,191.388 28.648,192.051 28.429 C 192.713 28.210,193.666 27.581,194.167 27.030 C 194.707 26.436,195.365 26.028,195.782 26.028 C 196.169 26.028,196.654 25.826,196.859 25.580 C 197.063 25.333,197.356 25.131,197.508 25.131 C 197.660 25.131,198.313 24.876,198.957 24.565 C 199.906 24.106,200.191 24.072,200.451 24.386 C 200.628 24.599,201.120 24.860,201.544 24.967 C 201.969 25.073,202.511 25.356,202.750 25.594 C 202.989 25.833,203.628 26.028,204.171 26.028 C 204.964 26.028,205.299 26.234,205.870 27.074 C 206.297 27.702,207.001 28.256,207.629 28.459 C 208.205 28.645,208.901 28.993,209.176 29.233 C 209.452 29.473,210.192 29.741,210.822 29.828 C 211.674 29.946,212.120 30.220,212.565 30.902 C 212.895 31.406,213.581 31.962,214.091 32.139 C 214.601 32.316,215.250 32.696,215.533 32.984 C 215.863 33.319,216.505 33.508,217.314 33.508 C 218.481 33.508,218.607 33.586,218.948 34.529 C 219.299 35.501,220.403 36.200,221.585 36.200 C 221.808 36.200,222.259 36.470,222.588 36.799 C 222.917 37.128,223.476 37.397,223.829 37.397 C 224.183 37.397,224.901 37.835,225.426 38.369 C 226.432 39.394,229.327 40.987,230.184 40.987 C 230.462 40.987,231.202 41.526,231.828 42.184 C 232.591 42.986,233.225 43.381,233.750 43.381 C 234.228 43.381,234.659 43.614,234.854 43.979 C 235.066 44.376,235.481 44.577,236.083 44.577 C 236.765 44.577,237.261 44.876,238.066 45.774 C 238.728 46.511,239.405 46.971,239.828 46.971 C 240.206 46.971,240.792 47.268,241.131 47.632 C 241.577 48.110,242.137 48.309,243.153 48.349 C 244.426 48.400,244.579 48.486,244.786 49.258 C 245.065 50.301,245.779 50.860,246.832 50.860 C 247.269 50.860,247.870 51.129,248.168 51.458 C 248.465 51.788,248.976 52.057,249.302 52.057 C 249.629 52.057,250.480 52.595,251.194 53.254 C 251.908 53.912,252.664 54.453,252.873 54.457 C 253.082 54.461,253.590 54.727,254.001 55.049 C 254.413 55.370,255.153 55.638,255.647 55.644 C 256.335 55.652,256.700 55.894,257.212 56.685 C 257.675 57.401,258.235 57.811,259.047 58.029 C 259.689 58.202,260.381 58.545,260.585 58.790 C 260.789 59.036,261.409 59.237,261.964 59.237 C 262.786 59.237,263.095 59.429,263.647 60.281 C 264.064 60.925,264.725 61.456,265.370 61.664 C 265.946 61.851,266.709 62.269,267.065 62.593 C 267.548 63.033,268.036 63.157,268.986 63.080 C 270.164 62.984,270.276 63.040,270.487 63.819 C 270.829 65.088,271.246 65.436,272.683 65.651 C 273.404 65.759,274.068 66.043,274.160 66.282 C 274.252 66.521,274.520 66.717,274.757 66.717 C 274.993 66.717,275.771 67.207,276.486 67.807 C 277.201 68.407,278.190 69.088,278.684 69.321 C 279.177 69.554,279.918 69.936,280.329 70.171 C 280.740 70.405,281.445 70.599,281.894 70.601 C 282.508 70.605,282.756 70.787,282.894 71.333 C 283.057 71.984,284.547 72.999,285.340 72.999 C 285.495 72.999,285.933 73.269,286.313 73.598 C 286.707 73.939,287.432 74.196,288.004 74.196 C 288.555 74.196,289.005 74.320,289.005 74.472 C 289.005 75.214,290.595 76.589,291.452 76.589 C 291.980 76.589,292.554 76.833,292.847 77.182 C 293.374 77.811,295.159 78.086,295.869 77.647 C 296.124 77.490,296.208 77.508,296.092 77.696 C 295.439 78.752,299.038 81.675,300.990 81.675 C 301.793 81.675,299.922 83.446,299.103 83.461 C 298.816 83.466,298.075 83.925,297.458 84.480 C 296.840 85.035,295.911 85.582,295.394 85.694 C 294.876 85.806,294.216 86.159,293.926 86.479 C 293.637 86.799,293.064 87.061,292.652 87.061 C 292.169 87.061,291.502 87.484,290.766 88.257 C 289.933 89.133,289.387 89.454,288.733 89.454 C 288.194 89.454,287.519 89.751,287.032 90.202 C 286.588 90.613,285.976 90.950,285.671 90.950 C 285.367 90.950,284.596 91.421,283.959 91.997 C 283.321 92.573,282.598 93.044,282.353 93.044 C 282.107 93.044,281.580 93.300,281.182 93.614 C 280.783 93.927,279.912 94.330,279.245 94.510 C 278.431 94.729,277.922 95.080,277.695 95.579 C 277.452 96.111,276.964 96.420,275.977 96.669 C 275.219 96.860,274.442 97.267,274.250 97.573 C 274.059 97.880,273.767 98.131,273.600 98.132 C 272.449 98.138,271.009 98.847,270.620 99.599 C 270.276 100.264,269.916 100.477,268.910 100.612 C 268.209 100.706,267.490 100.981,267.313 101.223 C 267.136 101.465,266.451 101.809,265.792 101.987 C 265.063 102.183,264.340 102.650,263.952 103.175 C 263.554 103.713,262.925 104.113,262.288 104.232 C 261.725 104.338,261.023 104.691,260.728 105.017 C 260.433 105.343,259.855 105.610,259.444 105.610 C 258.960 105.610,258.293 106.033,257.557 106.806 C 256.742 107.663,256.174 108.003,255.556 108.003 C 255.081 108.003,254.468 108.252,254.193 108.555 C 253.918 108.859,253.165 109.266,252.520 109.459 C 251.876 109.652,250.969 110.211,250.507 110.702 C 250.044 111.192,249.450 111.593,249.187 111.593 C 248.923 111.593,248.397 111.862,248.018 112.191 C 247.045 113.035,245.924 112.991,245.924 112.108 C 245.924 111.203,245.188 110.196,244.125 109.647 C 243.371 109.256,238.037 109.200,202.142 109.200 C 154.881 109.200,159.761 108.854,159.517 112.219 C 159.366 114.317,159.188 114.562,157.143 115.485 C 155.603 116.181,155.608 116.046,157.068 117.506 C 158.236 118.674,158.265 118.753,158.265 120.796 C 158.265 123.629,158.299 123.650,163.463 123.902 C 165.912 124.022,168.318 124.308,169.185 124.583 C 170.156 124.891,171.137 124.991,171.983 124.868 C 173.260 124.683,173.279 124.693,172.928 125.349 C 172.451 126.239,172.857 126.610,174.431 126.722 C 175.739 126.815,175.774 126.747,175.170 125.280 C 174.969 124.793,175.344 124.757,180.671 124.757 C 186.980 124.757,186.885 124.723,185.903 126.622 C 185.509 127.383,185.424 128.482,185.449 132.462 C 185.476 136.692,185.404 137.515,184.923 138.465 C 184.396 139.507,183.957 141.688,183.529 145.400 C 183.425 146.305,183.088 148.055,182.780 149.289 C 182.472 150.524,182.097 153.163,181.946 155.155 C 181.760 157.608,181.514 159.016,181.185 159.519 C 180.897 159.958,180.452 162.024,180.096 164.574 C 179.765 166.945,179.289 169.599,179.039 170.470 C 178.789 171.341,178.468 173.700,178.325 175.712 C 178.155 178.116,177.886 179.748,177.541 180.471 C 176.316 183.039,177.689 183.396,188.791 183.396 C 194.426 183.396,198.012 183.512,198.374 183.705 C 199.302 184.202,199.283 264.174,198.355 264.174 C 198.025 264.174,197.752 264.342,197.747 264.547 C 197.742 264.755,197.602 264.688,197.433 264.398 C 197.000 263.655,194.978 263.655,195.120 264.398 C 195.176 264.687,195.687 265.072,196.264 265.259 C 196.838 265.445,197.351 265.815,197.404 266.082 C 197.601 267.070,202.092 266.753,203.401 265.659 C 203.999 265.160,204.659 264.613,204.869 264.444 C 205.078 264.275,205.606 264.109,206.042 264.076 C 206.478 264.042,206.896 263.830,206.971 263.604 C 207.062 263.331,206.979 263.272,206.724 263.430 C 206.470 263.587,206.413 263.549,206.556 263.317 C 206.675 263.125,206.898 263.045,207.051 263.139 C 207.205 263.234,207.330 263.163,207.330 262.981 C 207.330 262.800,207.565 262.691,207.853 262.739 C 208.203 262.798,208.409 262.603,208.473 262.154 C 208.553 261.586,208.752 261.481,209.744 261.481 C 210.721 261.481,210.920 261.379,210.920 260.883 C 210.920 260.454,211.132 260.274,211.668 260.247 C 212.079 260.226,212.550 260.176,212.715 260.135 C 212.880 260.093,213.165 260.043,213.350 260.022 C 213.585 259.996,213.574 259.850,213.313 259.536 C 212.994 259.151,213.097 259.088,214.042 259.088 C 214.648 259.088,215.070 258.968,214.980 258.822 C 214.751 258.452,215.527 257.867,216.327 257.807 C 216.694 257.779,217.057 257.518,217.134 257.225 C 217.231 256.851,217.566 256.694,218.265 256.694 C 218.994 256.694,219.307 256.536,219.447 256.096 C 219.551 255.767,219.897 255.497,220.215 255.497 C 220.533 255.497,220.793 255.363,220.793 255.198 C 220.793 255.034,221.003 254.899,221.259 254.899 C 221.536 254.899,221.639 254.758,221.512 254.554 C 221.385 254.347,221.430 254.289,221.623 254.409 C 221.802 254.519,222.034 254.471,222.139 254.301 C 222.244 254.131,222.464 254.075,222.629 254.176 C 222.793 254.278,223.001 254.078,223.092 253.732 C 223.239 253.169,224.190 252.888,225.350 253.067 C 225.471 253.085,225.651 252.774,225.751 252.375 C 225.891 251.818,226.125 251.655,226.760 251.673 C 227.818 251.703,228.291 251.407,228.078 250.851 C 227.956 250.534,228.126 250.411,228.689 250.411 C 229.270 250.411,229.469 250.258,229.469 249.813 C 229.469 249.305,229.668 249.215,230.787 249.215 C 231.958 249.215,232.088 249.148,231.949 248.616 C 231.837 248.189,231.940 248.018,232.308 248.018 C 232.669 248.018,232.769 248.175,232.642 248.542 C 232.468 249.040,232.479 249.040,232.867 248.542 C 233.091 248.254,233.480 248.018,233.730 248.018 C 233.981 248.018,234.256 247.749,234.342 247.420 C 234.459 246.973,234.753 246.820,235.499 246.817 C 236.139 246.814,236.360 246.723,236.111 246.566 C 235.806 246.372,235.834 246.229,236.244 245.897 C 236.697 245.530,236.732 245.533,236.513 245.924 C 236.309 246.289,236.337 246.303,236.665 245.999 C 236.887 245.793,237.370 245.625,237.739 245.625 C 238.247 245.625,238.382 245.480,238.296 245.032 C 238.233 244.707,238.275 244.453,238.388 244.469 C 239.101 244.571,240.533 244.391,240.503 244.203 C 240.398 243.540,240.602 243.231,241.146 243.231 C 241.481 243.231,241.828 243.037,241.919 242.801 C 242.059 242.435,243.627 241.841,244.144 241.958 C 244.235 241.978,244.492 241.701,244.715 241.341 C 245.101 240.722,245.092 240.712,244.551 241.137 C 244.022 241.552,244.010 241.546,244.390 241.062 C 244.616 240.773,245.198 240.539,245.689 240.539 C 246.326 240.539,246.622 240.369,246.735 239.940 C 246.836 239.553,247.143 239.342,247.604 239.342 C 247.996 239.342,248.586 239.073,248.915 238.743 C 249.245 238.414,249.716 238.145,249.963 238.145 C 250.209 238.145,250.411 237.994,250.411 237.809 C 250.411 237.562,250.518 237.562,250.813 237.807 C 251.335 238.240,251.703 237.872,251.270 237.350 C 251.003 237.029,251.123 236.948,251.871 236.948 C 252.605 236.948,252.805 236.821,252.805 236.350 C 252.805 235.885,253.004 235.752,253.702 235.752 C 254.202 235.752,254.866 235.485,255.201 235.151 C 255.532 234.820,256.238 234.499,256.772 234.437 C 257.441 234.359,257.728 234.175,257.700 233.841 C 257.676 233.563,257.882 233.358,258.187 233.358 C 258.818 233.358,259.473 232.655,259.160 232.314 C 259.038 232.182,259.241 232.148,259.611 232.239 C 259.981 232.330,260.365 232.273,260.464 232.113 C 260.563 231.953,260.832 231.894,261.062 231.982 C 261.334 232.086,261.481 231.935,261.481 231.554 C 261.481 231.204,261.694 230.952,262.004 230.933 C 262.292 230.916,262.797 230.882,263.126 230.858 C 263.502 230.831,263.760 230.565,263.820 230.142 C 263.884 229.697,264.137 229.453,264.568 229.423 C 264.927 229.398,265.423 229.361,265.669 229.341 C 265.920 229.321,266.079 229.077,266.030 228.789 C 265.963 228.393,266.156 228.272,266.853 228.272 C 267.354 228.272,267.748 228.171,267.728 228.048 C 267.606 227.275,267.859 227.076,268.960 227.076 C 269.958 227.076,270.157 226.976,270.157 226.477 C 270.157 225.912,270.603 225.758,272.138 225.792 C 272.323 225.796,272.408 225.548,272.328 225.241 C 272.205 224.771,272.354 224.682,273.264 224.682 C 273.859 224.682,274.330 224.581,274.310 224.458 C 274.197 223.744,274.441 223.485,275.223 223.485 C 275.838 223.485,276.157 223.306,276.290 222.887 C 276.396 222.554,276.769 222.269,277.133 222.243 C 277.492 222.218,277.988 222.181,278.235 222.161 C 278.485 222.141,278.645 221.897,278.596 221.608 C 278.538 221.268,278.716 221.079,279.119 221.055 C 280.104 220.994,280.147 220.975,280.864 220.258 C 281.240 219.882,281.667 219.648,281.812 219.738 C 281.957 219.827,282.342 219.563,282.667 219.150 C 283.027 218.692,283.561 218.399,284.037 218.399 C 284.617 218.399,284.817 218.246,284.817 217.801 C 284.817 217.325,285.016 217.203,285.792 217.203 C 286.418 217.203,286.891 217.004,287.114 216.646 C 287.315 216.326,287.979 216.007,288.682 215.895 C 289.354 215.788,289.903 215.559,289.903 215.386 C 289.903 215.214,289.747 215.169,289.557 215.287 C 289.343 215.419,289.293 215.369,289.425 215.155 C 289.543 214.965,289.968 214.809,290.369 214.809 C 290.900 214.809,291.099 214.646,291.099 214.211 C 291.099 213.665,292.056 213.386,293.269 213.577 C 293.392 213.597,293.493 213.343,293.493 213.014 C 293.493 212.435,293.782 212.330,295.363 212.336 C 295.651 212.337,295.886 212.116,295.886 211.844 C 295.886 211.337,297.563 210.513,298.021 210.795 C 298.160 210.881,298.199 210.759,298.110 210.525 C 297.941 210.085,298.739 209.602,299.183 209.876 C 299.321 209.961,299.518 209.765,299.621 209.439 C 299.743 209.056,300.187 208.776,300.878 208.646 C 301.561 208.518,302.000 208.244,302.093 207.888 C 302.226 207.379,302.610 207.250,304.000 207.247 C 304.317 207.246,304.436 207.061,304.345 206.714 C 304.246 206.332,304.404 206.154,304.908 206.083 C 305.472 206.003,305.645 205.749,305.792 204.787 C 305.892 204.129,305.993 203.701,306.016 203.836 C 306.039 203.971,306.276 203.864,306.543 203.597 C 307.125 203.015,306.857 202.603,306.233 203.121 C 305.855 203.435,305.843 203.382,306.147 202.737 C 306.382 202.239,306.574 202.107,306.723 202.341 C 306.846 202.535,306.949 201.855,306.951 200.832 C 306.955 199.237,306.887 198.998,306.470 199.158 C 306.044 199.321,306.051 199.243,306.521 198.525 C 306.825 198.061,306.939 197.619,306.783 197.506 C 306.454 197.269,306.406 189.971,306.734 190.175 C 307.209 190.469,306.825 176.507,306.349 176.171 C 305.986 175.914,306.000 175.889,306.432 176.028 C 306.926 176.187,306.952 175.447,306.894 162.967 C 306.856 154.818,306.765 151.346,306.657 153.927 C 306.511 157.412,306.477 156.834,306.455 150.486 C 306.440 146.290,306.529 143.261,306.653 143.755 C 306.776 144.248,306.875 138.863,306.873 131.788 C 306.870 124.712,306.773 119.461,306.657 120.120 C 306.518 120.901,306.455 120.205,306.476 118.111 C 306.493 116.348,306.598 115.136,306.710 115.418 C 306.862 115.801,306.919 115.729,306.935 115.133 C 306.946 114.695,306.841 114.291,306.700 114.236 C 306.559 114.181,306.348 113.618,306.232 112.985 C 306.092 112.223,306.124 111.898,306.328 112.024 C 306.497 112.128,306.448 111.764,306.218 111.214 C 305.950 110.573,305.899 110.060,306.074 109.782 C 306.407 109.256,306.441 108.814,306.133 109.004 C 306.010 109.080,305.909 108.819,305.909 108.423 C 305.909 107.664,306.223 107.451,306.430 108.070 C 306.497 108.272,306.582 107.086,306.619 105.436 C 306.656 103.785,306.548 102.072,306.380 101.629 C 306.133 100.979,306.159 100.823,306.515 100.823 C 307.053 100.823,307.095 99.894,306.582 99.349 C 306.299 99.049,306.294 98.921,306.562 98.822 C 306.813 98.730,306.910 97.496,306.894 94.596 C 306.880 91.964,306.795 90.929,306.657 91.698 C 306.491 92.624,306.440 92.319,306.430 90.352 C 306.421 88.671,306.498 88.062,306.657 88.556 C 306.826 89.086,306.899 88.692,306.905 87.210 C 306.911 85.784,306.832 85.307,306.657 85.714 C 306.515 86.043,306.390 86.136,306.379 85.921 C 306.367 85.706,306.252 85.595,306.122 85.675 C 305.993 85.755,305.887 85.557,305.887 85.236 C 305.887 84.891,306.041 84.711,306.262 84.796 C 306.469 84.875,306.719 84.808,306.819 84.647 C 306.919 84.485,306.889 84.372,306.754 84.396 C 305.964 84.533,305.759 84.282,305.759 83.171 C 305.759 82.174,305.659 81.975,305.161 81.975 C 304.762 81.975,304.562 81.775,304.562 81.376 C 304.562 80.875,304.355 80.774,303.291 80.754 C 302.592 80.741,302.188 80.663,302.393 80.580 C 302.599 80.497,302.767 80.297,302.767 80.137 C 302.767 79.976,302.647 79.920,302.500 80.011 C 302.352 80.102,302.149 79.961,302.048 79.698 C 301.944 79.425,301.673 79.294,301.419 79.391 C 301.019 79.544,300.836 79.247,300.937 78.609 C 300.956 78.485,300.804 78.369,300.598 78.350 C 300.393 78.331,300.090 78.284,299.925 78.246 C 299.761 78.208,299.323 78.156,298.953 78.131 C 298.583 78.106,298.296 77.984,298.315 77.861 C 298.395 77.356,298.266 76.891,298.055 76.924 C 297.022 77.087,295.886 76.830,295.886 76.432 C 295.886 76.181,295.550 75.848,295.138 75.692 C 294.727 75.535,294.390 75.186,294.390 74.915 C 294.390 74.511,294.310 74.489,293.942 74.794 C 293.632 75.052,293.493 75.063,293.493 74.831 C 293.493 74.646,293.224 74.495,292.895 74.495 C 292.496 74.495,292.296 74.296,292.296 73.897 C 292.296 73.398,292.097 73.298,291.099 73.298 C 289.998 73.298,289.745 73.099,289.867 72.326 C 289.887 72.203,289.281 72.102,288.522 72.102 C 287.288 72.102,287.157 72.038,287.297 71.503 C 287.421 71.027,287.306 70.905,286.733 70.905 C 286.337 70.905,285.744 70.636,285.415 70.307 C 285.086 69.978,284.605 69.708,284.347 69.708 C 283.844 69.708,283.167 69.153,283.069 68.661 C 283.037 68.497,282.777 68.348,282.492 68.332 C 281.404 68.267,281.262 68.196,281.079 67.620 C 280.976 67.294,280.798 67.041,280.685 67.057 C 279.705 67.197,278.833 66.953,278.833 66.539 C 278.833 66.277,278.564 65.992,278.235 65.906 C 277.906 65.820,277.636 65.630,277.636 65.485 C 277.636 65.340,277.367 65.221,277.038 65.221 C 276.709 65.221,276.440 65.086,276.440 64.921 C 276.440 64.757,276.119 64.622,275.727 64.622 C 275.265 64.622,274.958 64.411,274.857 64.024 C 274.737 63.566,274.449 63.426,273.626 63.426 C 272.750 63.426,272.550 63.315,272.550 62.827 C 272.550 62.329,272.351 62.229,271.354 62.229 C 270.371 62.229,270.157 62.126,270.157 61.651 C 270.157 61.280,269.916 61.040,269.484 60.978 C 269.065 60.918,268.826 60.689,268.850 60.371 C 268.872 60.089,268.805 59.870,268.701 59.883 C 267.409 60.044,266.251 59.779,266.329 59.339 C 266.422 58.817,264.964 58.216,264.248 58.481 C 264.032 58.561,263.874 58.381,263.874 58.055 C 263.874 57.668,263.586 57.426,262.963 57.289 C 262.203 57.122,262.112 57.016,262.415 56.650 C 262.615 56.409,262.655 56.235,262.504 56.264 C 262.353 56.293,262.162 56.290,262.079 56.259 C 261.997 56.227,261.606 56.141,261.211 56.068 C 260.816 55.996,260.338 55.725,260.149 55.467 C 259.961 55.209,259.342 54.899,258.774 54.779 C 258.076 54.632,257.754 54.402,257.781 54.069 C 257.803 53.798,257.735 53.587,257.631 53.600 C 256.210 53.778,255.242 53.504,255.348 52.954 C 255.441 52.472,255.302 52.356,254.633 52.356 C 253.654 52.356,253.302 52.090,253.679 51.636 C 253.865 51.412,253.628 51.291,252.925 51.251 C 252.361 51.220,251.683 50.977,251.418 50.713 C 251.154 50.449,250.562 50.157,250.103 50.065 C 249.627 49.970,249.204 49.655,249.120 49.332 C 249.010 48.912,248.700 48.766,247.917 48.766 C 247.052 48.766,246.846 48.645,246.767 48.093 C 246.708 47.675,246.463 47.419,246.123 47.417 C 245.821 47.416,245.388 47.080,245.161 46.669 C 244.934 46.259,244.743 46.119,244.738 46.358 C 244.729 46.695,244.647 46.712,244.368 46.432 C 244.171 46.235,243.767 46.073,243.470 46.073 C 243.174 46.073,242.932 45.873,242.932 45.628 C 242.932 45.340,242.510 45.115,241.735 44.991 C 240.833 44.847,240.539 44.662,240.539 44.240 C 240.539 43.695,239.999 43.529,238.669 43.664 C 238.322 43.699,238.145 43.509,238.145 43.100 C 238.145 42.683,237.952 42.483,237.547 42.483 C 237.029 42.483,236.833 42.210,236.893 41.571 C 236.902 41.480,236.417 41.373,235.816 41.332 C 234.754 41.261,234.143 40.814,234.443 40.328 C 234.524 40.197,233.977 40.090,233.226 40.090 C 232.201 40.090,231.862 39.976,231.862 39.632 C 231.862 39.380,231.627 39.086,231.339 38.978 C 231.051 38.871,230.639 38.538,230.424 38.240 C 230.175 37.893,229.655 37.696,228.986 37.696 C 228.358 37.696,228.012 37.575,228.124 37.395 C 228.384 36.974,227.666 36.366,226.792 36.268 C 226.389 36.223,225.812 35.920,225.509 35.595 C 225.206 35.270,224.702 35.004,224.388 35.004 C 224.075 35.004,223.634 34.740,223.409 34.419 C 223.151 34.051,222.589 33.806,221.896 33.759 C 221.079 33.704,220.793 33.551,220.793 33.168 C 220.793 32.863,220.518 32.610,220.120 32.549 C 219.749 32.493,219.484 32.271,219.529 32.057 C 219.585 31.792,219.417 31.729,219.005 31.860 C 218.655 31.971,218.399 31.917,218.399 31.733 C 218.399 31.557,218.146 31.414,217.836 31.414 C 217.526 31.414,217.205 31.154,217.122 30.837 C 217.018 30.440,216.657 30.230,215.965 30.164 C 215.223 30.093,214.970 29.930,215.000 29.544 C 215.033 29.134,214.805 29.019,213.953 29.016 C 213.099 29.012,212.961 28.942,213.313 28.690 C 213.672 28.434,213.623 28.401,213.071 28.522 C 212.636 28.618,212.319 28.516,212.216 28.249 C 212.126 28.015,211.798 27.823,211.486 27.823 C 211.119 27.823,210.920 27.613,210.920 27.225 C 210.920 26.728,210.721 26.627,209.744 26.627 C 208.771 26.627,208.552 26.516,208.473 25.985 C 208.405 25.531,208.131 25.318,207.532 25.256 C 206.637 25.162,205.756 24.602,205.966 24.262 C 206.035 24.150,205.814 24.037,205.475 24.012 C 205.136 23.986,204.565 23.689,204.205 23.351 C 203.846 23.014,203.252 22.737,202.885 22.737 C 202.519 22.737,201.930 22.468,201.577 22.139 C 200.953 21.558,199.364 21.388,197.959 21.751 M306.358 104.879 C 306.358 106.311,306.248 107.073,306.058 106.956 C 305.894 106.854,305.759 105.837,305.759 104.694 C 305.759 103.509,305.888 102.618,306.058 102.618 C 306.231 102.618,306.358 103.571,306.358 104.879 M306.491 110.422 C 306.380 110.601,306.440 110.898,306.623 111.081 C 306.867 111.325,306.956 111.239,306.956 110.755 C 306.956 110.033,306.800 109.922,306.491 110.422 M242.665 111.859 C 244.184 113.089,242.891 121.592,240.996 122.834 C 240.330 123.270,236.577 123.312,221.583 123.051 C 212.719 122.896,212.231 122.981,211.964 124.715 C 211.871 125.314,211.464 127.242,211.059 129.000 C 210.653 130.758,210.322 132.936,210.322 133.840 C 210.322 134.744,209.927 137.210,209.445 139.320 C 208.964 141.430,208.420 144.417,208.238 145.958 C 208.057 147.499,207.649 149.720,207.333 150.894 C 207.018 152.068,206.619 154.308,206.448 155.871 C 206.276 157.435,205.867 159.830,205.538 161.195 C 205.209 162.559,204.799 164.911,204.628 166.421 C 204.457 167.931,204.057 170.184,203.740 171.429 C 203.422 172.673,203.019 174.966,202.845 176.524 C 202.670 178.082,202.476 179.559,202.414 179.806 C 202.351 180.052,202.225 180.592,202.134 181.005 C 201.784 182.599,201.252 182.663,189.798 182.499 C 182.198 182.390,179.177 182.248,178.861 181.985 C 178.327 181.541,178.801 176.875,179.770 173.038 C 180.098 171.742,180.513 169.334,180.692 167.689 C 180.871 166.043,181.276 163.755,181.593 162.603 C 181.909 161.451,182.313 159.172,182.490 157.538 C 182.667 155.904,183.072 153.548,183.389 152.303 C 183.706 151.057,184.112 148.758,184.290 147.195 C 184.468 145.632,184.937 143.007,185.333 141.361 C 185.730 139.716,186.142 137.225,186.250 135.826 C 186.358 134.428,186.770 132.022,187.166 130.480 C 187.977 127.319,188.190 124.047,187.623 123.479 C 187.344 123.201,184.037 123.099,174.031 123.061 C 158.685 123.002,159.162 123.076,159.162 120.762 C 159.162 119.873,159.353 118.690,159.586 118.132 C 159.819 117.575,160.145 116.137,160.312 114.937 C 160.652 112.480,160.932 112.006,162.266 111.619 C 164.391 111.003,241.894 111.234,242.665 111.859 M152.796 113.572 C 151.926 114.441,153.258 115.981,154.651 115.716 C 155.251 115.602,155.426 114.486,154.912 114.059 C 154.374 113.613,153.058 113.310,152.796 113.572 M224.383 124.926 C 224.383 125.557,223.641 126.213,222.736 126.383 C 222.151 126.493,221.186 126.912,220.592 127.315 C 219.998 127.718,219.342 128.048,219.134 128.048 C 218.926 128.048,218.191 128.519,217.502 129.095 C 216.813 129.671,216.080 130.142,215.874 130.142 C 215.668 130.142,215.189 130.411,214.809 130.740 C 213.472 131.900,213.313 131.615,213.313 128.048 L 213.313 124.757 218.848 124.757 C 221.892 124.757,224.383 124.833,224.383 124.926 M306.657 129.245 C 306.657 132.037,306.544 133.732,306.358 133.732 C 306.171 133.732,306.058 132.037,306.058 129.245 C 306.058 126.452,306.171 124.757,306.358 124.757 C 306.544 124.757,306.657 126.452,306.657 129.245 M175.916 127.097 C 175.916 127.250,176.113 127.539,176.353 127.739 C 176.884 128.179,178.693 127.854,178.527 127.347 C 178.390 126.932,175.916 126.695,175.916 127.097 M179.713 128.692 C 178.535 129.351,179.652 130.502,181.185 130.209 C 181.829 130.086,181.844 130.035,181.419 129.387 C 180.856 128.528,180.364 128.327,179.713 128.692 M182.797 130.883 C 182.797 131.055,183.077 131.370,183.419 131.583 C 184.218 132.082,185.111 131.515,184.564 130.856 C 184.181 130.394,182.797 130.415,182.797 130.883 M306.657 168.586 C 306.657 170.681,306.540 172.027,306.358 172.027 C 306.024 172.027,305.929 165.674,306.258 165.345 C 306.634 164.969,306.657 165.153,306.657 168.586 M306.124 195.974 C 306.198 196.475,306.173 196.938,306.068 197.002 C 305.964 197.066,305.848 196.657,305.810 196.091 C 305.724 194.819,305.943 194.738,306.124 195.974 M94.241 205.385 C 94.241 206.033,94.362 206.158,94.914 206.079 C 95.356 206.016,95.587 205.778,95.587 205.385 C 95.587 204.992,95.356 204.754,94.914 204.691 C 94.362 204.613,94.241 204.738,94.241 205.385 M95.489 206.638 C 95.566 207.043,95.919 207.204,96.887 207.273 C 98.001 207.354,98.167 207.291,98.078 206.825 C 98.001 206.420,97.649 206.259,96.681 206.189 C 95.567 206.109,95.401 206.172,95.489 206.638 M97.981 207.629 C 97.712 208.063,98.123 208.593,98.590 208.414 C 98.809 208.330,99.054 208.422,99.134 208.618 C 99.214 208.815,99.290 208.605,99.303 208.153 C 99.327 207.312,98.403 206.946,97.981 207.629 M100.378 209.050 C 100.433 209.338,100.488 209.683,100.501 209.816 C 100.513 209.949,100.654 209.977,100.814 209.878 C 100.974 209.779,101.405 210.045,101.773 210.467 C 102.273 211.043,102.651 211.203,103.277 211.104 C 103.980 210.993,104.114 211.078,104.114 211.630 C 104.114 212.164,104.297 212.297,105.086 212.334 C 105.621 212.359,105.890 212.309,105.684 212.223 C 105.479 212.137,105.310 211.809,105.310 211.493 C 105.310 211.178,105.124 210.920,104.897 210.920 C 104.669 210.920,104.408 210.635,104.317 210.287 C 104.180 209.761,103.974 209.674,103.106 209.775 C 102.531 209.843,102.068 209.825,102.076 209.736 C 102.160 208.802,101.949 208.527,101.148 208.527 C 100.480 208.527,100.301 208.648,100.378 209.050 M106.719 212.304 C 106.159 212.864,106.528 213.613,107.364 213.613 C 108.063 213.613,108.214 213.489,108.187 212.939 C 108.153 212.271,107.176 211.847,106.719 212.304 M108.901 214.211 C 108.901 214.540,109.001 214.793,109.125 214.774 C 109.916 214.649,110.443 214.855,110.298 215.233 C 110.139 215.648,110.662 216.006,111.427 216.006 C 111.674 216.006,111.759 215.741,111.666 215.258 C 111.574 214.776,111.323 214.510,110.960 214.510 C 110.650 214.510,110.396 214.308,110.396 214.061 C 110.396 213.782,110.114 213.613,109.648 213.613 C 109.100 213.613,108.901 213.772,108.901 214.211 M112.790 216.437 C 112.790 217.025,113.275 217.279,113.974 217.057 C 114.325 216.946,114.489 216.701,114.388 216.439 C 114.170 215.870,112.790 215.868,112.790 216.437 M115.183 217.801 C 115.183 218.243,115.383 218.399,115.944 218.399 C 116.447 218.399,116.675 218.545,116.617 218.829 C 116.569 219.065,116.631 219.267,116.754 219.277 C 117.646 219.355,117.808 219.252,117.664 218.702 C 117.579 218.375,117.380 218.186,117.223 218.283 C 117.066 218.380,116.864 218.177,116.774 217.831 C 116.549 216.973,115.183 216.947,115.183 217.801 M118.902 220.178 C 118.902 220.631,118.991 220.686,119.303 220.426 C 119.608 220.173,119.683 220.193,119.613 220.507 C 119.552 220.781,119.811 220.928,120.379 220.942 C 120.884 220.954,121.457 221.235,121.773 221.626 C 122.464 222.480,122.986 222.475,122.857 221.616 C 122.792 221.185,122.511 220.906,122.076 220.842 C 121.702 220.787,121.329 220.484,121.247 220.169 C 121.027 219.329,118.902 219.337,118.902 220.178 M126.335 224.084 C 126.360 224.413,126.576 224.682,126.815 224.682 C 127.054 224.682,127.161 224.594,127.053 224.485 C 126.945 224.377,127.006 224.108,127.190 223.887 C 127.450 223.573,127.388 223.485,126.906 223.485 C 126.474 223.485,126.303 223.664,126.335 224.084 M127.910 225.085 C 127.526 225.366,127.464 225.553,127.705 225.703 C 127.900 225.823,128.132 225.707,128.235 225.440 C 128.398 225.015,128.463 225.021,128.832 225.496 C 129.221 225.996,129.236 225.992,129.071 225.430 C 128.899 224.840,128.903 224.840,129.370 225.412 C 129.757 225.887,129.843 225.907,129.843 225.519 C 129.843 225.095,129.268 224.682,128.679 224.682 C 128.559 224.682,128.213 224.864,127.910 225.085 M129.962 226.228 C 129.877 226.365,130.085 226.477,130.424 226.477 C 130.762 226.477,131.040 226.365,131.040 226.228 C 131.040 226.091,130.832 225.979,130.578 225.979 C 130.324 225.979,130.046 226.091,129.962 226.228 M132.511 227.495 C 132.779 227.817,132.770 227.951,132.473 228.070 C 132.261 228.155,132.558 228.225,133.134 228.225 C 133.710 228.225,134.020 228.160,133.824 228.080 C 133.627 228.000,133.541 227.741,133.631 227.505 C 133.750 227.196,133.566 227.076,132.980 227.076 C 132.313 227.076,132.227 227.153,132.511 227.495 M135.317 228.839 C 135.016 229.322,135.039 229.400,135.468 229.337 C 135.747 229.296,135.953 229.171,135.924 229.059 C 135.745 228.366,135.637 228.326,135.317 228.839 M136.126 229.853 C 136.126 230.141,136.886 230.965,137.151 230.965 C 137.245 230.965,137.322 230.637,137.322 230.235 C 137.322 229.691,137.171 229.518,136.724 229.551 C 136.395 229.576,136.126 229.712,136.126 229.853 M138.519 230.920 C 138.519 231.647,138.895 232.085,139.406 231.952 C 140.149 231.758,139.969 230.839,139.165 230.720 C 138.810 230.667,138.519 230.757,138.519 230.920 M141.436 232.069 C 141.148 232.144,140.912 232.487,140.912 232.832 C 140.912 233.176,140.997 233.374,141.100 233.270 C 141.406 232.965,143.046 233.950,142.825 234.307 C 142.707 234.498,142.796 234.576,143.040 234.494 C 143.642 234.294,143.750 233.358,143.171 233.358 C 142.908 233.358,142.565 233.022,142.408 232.610 C 142.252 232.199,142.087 231.878,142.042 231.897 C 141.997 231.916,141.724 231.993,141.436 232.069 M144.699 235.091 C 144.864 235.721,146.650 236.007,146.524 235.383 C 146.416 234.851,145.958 234.565,145.204 234.560 C 144.730 234.556,144.596 234.697,144.699 235.091 M147.251 236.275 C 147.306 236.563,147.671 236.844,148.063 236.900 C 148.625 236.980,148.735 236.895,148.584 236.501 C 148.478 236.227,148.392 235.946,148.392 235.877 C 148.392 235.808,148.113 235.752,147.772 235.752 C 147.342 235.752,147.182 235.913,147.251 236.275 M151.094 238.762 C 151.479 239.480,152.379 239.420,152.524 238.665 C 152.602 238.261,152.417 238.145,151.694 238.145 C 150.848 238.145,150.794 238.201,151.094 238.762 M152.903 238.950 C 152.890 239.146,153.023 239.395,153.199 239.504 C 153.375 239.613,153.446 239.890,153.358 240.120 C 153.248 240.407,153.423 240.539,153.912 240.539 C 154.304 240.539,154.872 240.616,155.174 240.711 C 155.675 240.868,155.678 240.855,155.211 240.553 C 154.930 240.372,154.776 240.025,154.869 239.783 C 154.995 239.454,154.807 239.342,154.133 239.342 C 153.636 239.342,153.161 239.174,153.078 238.968 C 152.969 238.698,152.920 238.693,152.903 238.950 M157.073 242.000 C 157.083 242.425,157.653 243.044,158.093 243.109 C 158.353 243.147,158.496 243.064,158.409 242.924 C 158.323 242.784,158.491 242.531,158.782 242.361 C 159.206 242.114,159.222 242.043,158.863 242.005 C 158.616 241.979,158.111 241.926,157.741 241.887 C 157.371 241.849,157.070 241.900,157.073 242.000 M159.461 243.370 C 159.461 243.872,160.362 244.430,161.162 244.423 C 161.587 244.420,161.616 244.362,161.293 244.158 C 161.066 244.014,160.964 243.761,161.067 243.595 C 161.169 243.429,161.041 243.212,160.782 243.113 C 159.987 242.808,159.461 242.910,159.461 243.370 M163.353 245.920 C 163.030 246.523,163.056 246.561,163.662 246.369 C 164.111 246.226,164.257 246.265,164.119 246.490 C 163.989 246.700,164.198 246.821,164.689 246.821 C 165.376 246.821,166.039 246.118,165.685 245.764 C 165.135 245.215,163.678 245.312,163.353 245.920 M165.606 247.049 C 165.373 247.655,165.406 247.778,165.744 247.569 C 165.909 247.467,166.043 247.536,166.043 247.722 C 166.043 248.246,167.372 247.930,167.476 247.381 C 167.599 246.738,165.845 246.427,165.606 247.049 M168.142 248.691 C 168.146 249.235,168.202 249.278,168.437 248.915 C 168.630 248.616,168.728 248.591,168.731 248.841 C 168.734 249.046,168.871 249.215,169.035 249.215 C 169.200 249.215,169.334 248.945,169.334 248.616 C 169.334 248.217,169.135 248.018,168.736 248.018 C 168.314 248.018,168.139 248.216,168.142 248.691 M170.301 249.813 C 170.507 250.142,170.912 250.411,171.201 250.411 C 171.674 250.411,171.865 250.741,171.763 251.384 C 171.731 251.590,172.002 251.639,173.643 251.727 C 173.955 251.744,174.248 252.006,174.293 252.309 C 174.392 252.971,174.720 253.362,174.720 252.818 C 174.720 252.509,174.809 252.506,175.168 252.805 C 175.548 253.120,175.617 253.056,175.617 252.393 C 175.617 251.750,175.478 251.608,174.851 251.608 C 174.417 251.608,174.166 251.479,174.271 251.309 C 174.372 251.144,174.305 251.010,174.121 251.010 C 173.937 251.010,173.870 250.875,173.972 250.711 C 174.082 250.533,173.725 250.411,173.092 250.411 C 172.226 250.411,172.027 250.299,172.027 249.813 C 172.027 249.328,171.827 249.215,170.977 249.215 C 170.003 249.215,169.954 249.257,170.301 249.813 M176.594 253.364 C 176.619 253.692,176.745 253.894,176.876 253.814 C 177.006 253.733,177.113 253.810,177.113 253.984 C 177.113 254.158,177.270 254.267,177.462 254.226 C 177.655 254.185,177.958 254.420,178.136 254.749 C 178.314 255.079,178.628 255.361,178.833 255.378 C 179.039 255.394,179.461 255.428,179.771 255.453 C 180.081 255.477,180.397 255.736,180.473 256.029 C 180.647 256.696,181.900 256.844,181.900 256.197 C 181.900 255.517,180.106 253.964,179.384 254.019 C 178.287 254.104,178.076 254.014,178.119 253.478 C 178.147 253.119,177.907 252.925,177.355 252.861 C 176.707 252.787,176.558 252.885,176.594 253.364 M183.128 256.668 C 182.557 257.030,182.940 257.891,183.671 257.891 C 183.997 257.891,184.380 258.099,184.523 258.354 C 184.665 258.609,185.110 258.852,185.510 258.895 C 185.910 258.938,186.238 259.045,186.238 259.134 C 186.238 259.493,187.086 260.284,187.471 260.284 C 187.698 260.284,187.883 260.015,187.883 259.686 C 187.883 259.357,187.690 259.088,187.455 259.088 C 187.219 259.088,186.941 258.818,186.836 258.489 C 186.633 257.849,185.191 257.619,185.191 258.227 C 185.191 258.457,185.049 258.445,184.738 258.187 C 184.489 257.980,184.303 257.661,184.325 257.477 C 184.452 256.401,184.015 256.106,183.128 256.668 M189.080 260.883 C 189.080 261.277,189.279 261.481,189.665 261.481 C 189.986 261.481,190.598 261.829,191.024 262.255 C 191.627 262.858,191.889 262.954,192.209 262.688 C 192.531 262.421,192.662 262.480,192.815 262.961 C 192.922 263.299,193.143 263.575,193.306 263.575 C 193.469 263.575,193.541 263.676,193.464 263.800 C 193.388 263.923,193.683 264.041,194.120 264.061 C 194.557 264.081,194.745 264.036,194.538 263.961 C 194.331 263.885,194.235 263.705,194.325 263.561 C 194.414 263.416,194.179 262.990,193.803 262.614 C 193.427 262.238,193.153 261.829,193.194 261.705 C 193.235 261.582,192.933 261.481,192.523 261.481 C 192.102 261.481,191.615 261.221,191.404 260.883 C 191.154 260.483,190.706 260.284,190.055 260.284 C 189.279 260.284,189.080 260.407,189.080 260.883 " stroke="none" fill="#c42434" fill-rule="evenodd"></path></g></svg>